<svg width="87" height="87" viewBox="0 0 87 87" fill="none" xmlns="http://www.w3.org/2000/svg">
<rect width="87" height="87" rx="4" fill="#FFECEC"/>
<path fill-rule="evenodd" clip-rule="evenodd" d="M65.7815 31.023H52.6854C52.4854 31.0227 52.2856 31.0107 52.087 30.9869H51.9039C51.2074 30.9977 50.5432 31.282 50.0545 31.7784C49.5658 32.2748 49.2919 32.9434 49.2919 33.64C49.2919 34.3365 49.5658 35.0051 50.0545 35.5015C50.5432 35.9979 51.2074 36.2822 51.9039 36.293H66.5624C67.2589 36.2822 67.9231 35.9979 68.4118 35.5015C68.9005 35.0051 69.1744 34.3365 69.1744 33.64C69.1744 32.9434 68.9005 32.2748 68.4118 31.7784C67.9231 31.282 67.2589 30.9977 66.5624 30.9869H66.3799C66.1813 31.0107 65.9815 31.0227 65.7815 31.023ZM66.2767 29.4406C67.1373 29.3172 67.919 28.872 68.4643 28.1949C69.0095 27.5178 69.2778 26.6591 69.2149 25.792C69.152 24.9249 68.7626 24.1139 68.1253 23.5226C67.488 22.9313 66.6502 22.6036 65.7809 22.6056H52.6854C51.8161 22.6036 50.9783 22.9313 50.341 23.5226C49.7037 24.1139 49.3143 24.9249 49.2514 25.792C49.1885 26.6591 49.4568 27.5178 50.002 28.1949C50.5473 28.872 51.329 29.3172 52.1896 29.4406H66.2767ZM51.9039 21.0639H62.9237C63.6274 21.0639 64.3023 20.7843 64.8 20.2867C65.2976 19.7891 65.5771 19.1142 65.5771 18.4105C65.5771 17.7068 65.2976 17.0319 64.8 16.5343C64.3023 16.0367 63.6274 15.7571 62.9237 15.7571H51.9039C51.2002 15.7571 50.5253 16.0367 50.0277 16.5343C49.5301 17.0319 49.2505 17.7068 49.2505 18.4105C49.2505 19.1142 49.5301 19.7891 50.0277 20.2867C50.5253 20.7843 51.2002 21.0639 51.9039 21.0639ZM52.1883 43.7116H63.5576C64.3291 43.7001 65.0651 43.3856 65.6067 42.836C66.1482 42.2864 66.4518 41.5457 66.4518 40.7741C66.4518 40.0025 66.1482 39.2619 65.6067 38.7123C65.0651 38.1626 64.3291 37.8481 63.5576 37.8367H52.1883C51.4168 37.8481 50.6807 38.1626 50.1392 38.7123C49.5976 39.2619 49.294 40.0025 49.294 40.7741C49.294 41.5457 49.5976 42.2864 50.1392 42.836C50.6807 43.3856 51.4168 43.7001 52.1883 43.7116ZM29.7399 17.6574C29.8591 17.6412 30.0055 17.6193 30.1815 17.5929C31.1591 17.4414 32.1295 17.206 33.1631 16.9558C34.0498 16.7411 34.9847 16.5141 36.0081 16.3226C37.0997 16.1176 38.2759 15.9557 39.4829 15.8442C40.69 15.7326 41.9145 15.6701 43.128 15.6623C44.3416 15.6546 45.5564 15.7036 46.7744 15.7816C47.3451 15.8177 47.9351 15.8629 48.5361 15.9106C47.9341 16.7174 47.6435 17.7143 47.7175 18.7182C47.7916 19.7221 48.2253 20.6656 48.9391 21.3753C49.1859 21.6234 49.4625 21.84 49.7625 22.0201C49.179 22.4417 48.6941 22.9851 48.3414 23.6127C47.9888 24.2403 47.7769 24.9371 47.7203 25.6548C47.6637 26.3724 47.7639 27.0938 48.0139 27.7689C48.2639 28.444 48.6577 29.0567 49.168 29.5644C49.3448 29.7411 49.5345 29.9045 49.7354 30.0532C49.4458 30.2289 49.1784 30.4389 48.9391 30.6787L48.9217 30.6961C47.965 29.5776 46.8129 28.6425 45.5216 27.9363C43.9124 27.0424 42.1232 26.521 40.2857 26.4107C40.183 26.4026 40.0798 26.4152 39.982 26.4477C39.8843 26.4802 39.7941 26.5319 39.7167 26.5999C39.6393 26.6679 39.5763 26.7507 39.5315 26.8434C39.4866 26.9362 39.4609 27.0369 39.4556 27.1398C39.4504 27.2427 39.4659 27.3455 39.5011 27.4423C39.5363 27.5391 39.5906 27.6279 39.6607 27.7033C39.7308 27.7788 39.8154 27.8394 39.9093 27.8817C40.0033 27.9239 40.1047 27.9468 40.2077 27.9492C41.8125 28.048 43.3747 28.5055 44.7794 29.2878C46.0392 29.9707 47.1451 30.9052 48.0286 32.0334C47.6588 32.9321 47.6117 33.9312 47.8954 34.8607C48.1791 35.7902 48.7759 36.5928 49.5845 37.1319C48.8138 37.6846 48.2382 38.4674 47.9406 39.3679C47.6429 40.2684 47.6386 41.2401 47.9283 42.1433C48.2179 43.0464 48.7866 43.8343 49.5524 44.3937C50.3182 44.9532 51.2418 45.2553 52.1902 45.2565H53.445C54.2497 47.7713 55.0396 50.237 55.6058 52.0515C55.883 52.9388 56.081 53.5894 56.1913 54.1149C56.2907 54.5452 56.3201 54.9888 56.2783 55.4284C56.2207 55.9233 56.0935 56.4076 55.9004 56.867C55.7015 57.3546 55.4396 57.8142 55.1215 58.234C54.8039 58.6465 54.4356 59.0174 54.0253 59.3379C53.6693 59.6245 53.2722 59.8558 52.8473 60.024C52.6238 60.1132 52.3833 60.152 52.1431 60.1375C52.0015 60.1283 51.8662 60.0751 51.7563 59.9853C51.5847 59.8344 51.4687 59.4643 51.1927 58.5867C51.1701 58.5145 51.2514 58.7724 51.0328 58.0876C50.8045 57.3699 50.4957 56.435 50.13 55.4658C49.7418 54.4254 49.2927 53.4087 48.785 52.421C48.288 51.472 47.7077 50.5689 47.0511 49.7225C46.4296 48.9229 45.7429 48.1762 44.998 47.4902C43.8397 46.4602 42.6175 45.5044 41.3387 44.6285C41.1511 44.495 40.9686 44.3648 40.6094 44.1043C39.9543 43.6303 39.3688 43.1873 38.8588 42.7437C38.3716 42.3282 37.9253 41.867 37.5259 41.3664C37.1517 40.8695 36.8043 40.3529 36.4852 39.8188C36.1353 39.2229 35.741 38.6541 35.3059 38.1172C34.8798 37.6094 34.3528 37.1957 33.7583 36.9024C33.0676 36.58 32.3329 36.3616 31.5782 36.2543C31.1965 36.1899 30.7748 36.1357 30.3376 36.0893C30.1377 36.068 29.9372 36.0486 29.7379 36.0306V17.6535L29.7399 17.6574ZM27.9802 39.8608H18.4157C17.9492 39.8601 17.502 39.6745 17.1722 39.3446C16.8423 39.0147 16.6567 38.5676 16.656 38.1011V15.7603C16.6565 15.2937 16.8421 14.8464 17.1719 14.5164C17.5018 14.1864 17.9491 14.0007 18.4157 14H27.9802C28.4469 14.0003 28.8944 14.1859 29.2243 14.516C29.5543 14.8461 29.7397 15.2936 29.7399 15.7603V16.1008C29.8211 16.0905 29.8901 16.0802 29.9462 16.0718C30.8489 15.9319 31.7942 15.7029 32.8014 15.4586C33.7177 15.2367 34.6843 15.002 35.7243 14.8073C36.8489 14.5964 38.0747 14.4282 39.3443 14.3108C40.5823 14.196 41.8591 14.1309 43.1216 14.1232C44.4041 14.1148 45.6473 14.1644 46.8712 14.2424C48.095 14.3205 49.217 14.4172 50.3402 14.5158C50.8371 14.3151 51.368 14.2119 51.9039 14.2121H62.9237C63.7202 14.2104 64.5007 14.4355 65.1738 14.8613C65.8469 15.2871 66.3848 15.8959 66.7244 16.6164C67.0639 17.3368 67.1912 18.1391 67.0913 18.9293C66.9913 19.7195 66.6683 20.4649 66.16 21.0781C67.1721 21.1571 68.1357 21.5436 68.922 22.1856C69.7083 22.8277 70.2795 23.6947 70.5593 24.6705C70.839 25.6463 70.8139 26.6843 70.4872 27.6454C70.1605 28.6065 69.548 29.4448 68.7315 30.048C69.4883 30.507 70.0808 31.1935 70.4242 32.0093C70.7676 32.8251 70.8444 33.7285 70.6437 34.5906C70.4429 35.4527 69.9749 36.2293 69.3064 36.8094C68.638 37.3896 67.8033 37.7438 66.9215 37.8212C67.4908 38.468 67.8613 39.2654 67.9886 40.1175C68.1159 40.9697 67.9946 41.8405 67.6392 42.6254C67.2839 43.4103 66.7096 44.076 65.9852 44.5426C65.2609 45.0092 64.4173 45.2569 63.5556 45.2559H55.0616C55.8573 47.739 56.6175 50.1152 57.0785 51.5918C57.3661 52.5139 57.5731 53.1961 57.6995 53.8035C57.8328 54.3883 57.8705 54.9908 57.811 55.5877C57.7378 56.2308 57.5739 56.8604 57.3242 57.4576C57.0737 58.0691 56.7442 58.645 56.3441 59.1709C55.9454 59.6876 55.483 60.1518 54.9681 60.5527C54.4845 60.9393 53.9448 61.2498 53.3676 61.4735C52.9284 61.6423 52.4568 61.7102 51.9877 61.6721C51.5241 61.6336 51.0846 61.4492 50.7323 61.1453C50.239 60.712 50.0843 60.2181 49.7161 59.0471C49.5981 58.6712 49.6664 58.8801 49.5626 58.5538C49.3485 57.8819 49.0539 56.9927 48.6812 56.0107C48.3158 55.0281 47.8929 54.0678 47.4147 53.1348C46.5324 51.4425 45.362 49.9169 43.956 48.6263C42.8445 47.6398 41.672 46.724 40.4456 45.8846C40.129 45.6589 39.8202 45.4384 39.7041 45.3545C39.0303 44.8671 38.4177 44.4015 37.8509 43.9095C37.2889 43.43 36.774 42.898 36.313 42.3207C35.9036 41.7809 35.5241 41.2191 35.1762 40.6378C34.8657 40.1089 34.5179 39.6027 34.1355 39.1231C33.8445 38.7748 33.4844 38.4907 33.078 38.2887C32.5222 38.0345 31.9322 37.8629 31.3267 37.7793C30.9727 37.72 30.582 37.669 30.1764 37.6265C30.0345 37.611 29.889 37.5966 29.7399 37.5833V38.0991C29.7395 38.5657 29.554 39.0131 29.2241 39.343C28.8941 39.673 28.4468 39.8585 27.9802 39.8588V39.8608ZM18.4157 38.3132H27.9802C28.0371 38.3125 28.0915 38.2896 28.1317 38.2494C28.172 38.2091 28.1949 38.1548 28.1955 38.0978V15.7603C28.1949 15.7034 28.172 15.649 28.1317 15.6088C28.0915 15.5685 28.0371 15.5456 27.9802 15.545H18.4157C18.3589 15.5458 18.3047 15.5688 18.2646 15.609C18.2245 15.6492 18.2016 15.7035 18.201 15.7603V38.1011C18.2016 38.1579 18.2245 38.2122 18.2646 38.2524C18.3047 38.2926 18.3589 38.3156 18.4157 38.3164V38.3132ZM26.1096 22.6598C26.5596 22.2097 26.8397 21.6174 26.9021 20.984C26.9644 20.3505 26.8052 19.715 26.4516 19.1858C26.0979 18.6565 25.5717 18.2663 24.9626 18.0815C24.3535 17.8967 23.6991 17.9288 23.111 18.1724C22.523 18.416 22.0375 18.8559 21.7374 19.4173C21.4373 19.9786 21.3412 20.6267 21.4653 21.251C21.5894 21.8753 21.9262 22.4372 22.4182 22.8411C22.9102 23.245 23.527 23.4657 24.1635 23.4658C24.525 23.4663 24.883 23.3954 25.217 23.257C25.551 23.1187 25.8543 22.9158 26.1096 22.6598ZM24.1635 21.9215C24.443 21.9216 24.7138 21.8248 24.9299 21.6476C25.146 21.4704 25.294 21.2237 25.3485 20.9496C25.4031 20.6756 25.361 20.391 25.2292 20.1446C25.0975 19.8981 24.8844 19.7049 24.6262 19.598C24.368 19.491 24.0808 19.4769 23.8133 19.5581C23.5459 19.6392 23.3149 19.8106 23.1597 20.043C23.0045 20.2754 22.9347 20.5544 22.9622 20.8325C22.9897 21.1106 23.1128 21.3706 23.3104 21.5681C23.4224 21.6803 23.5554 21.7692 23.7018 21.8299C23.8482 21.8905 24.0051 21.9216 24.1635 21.9215ZM50.8825 66.0607C50.8894 65.954 50.9183 65.8499 50.9674 65.755C51.0165 65.6601 51.0847 65.5763 51.1678 65.5091C51.2508 65.4418 51.3469 65.3925 51.45 65.3642C51.5531 65.3359 51.6609 65.3293 51.7666 65.3447C51.8724 65.3602 51.9738 65.3974 52.0645 65.454C52.1551 65.5106 52.2331 65.5854 52.2934 65.6736C52.3537 65.7618 52.3951 65.8616 52.415 65.9666C52.4349 66.0716 52.4328 66.1796 52.4088 66.2838L51.6511 71.3726C51.6438 71.4789 51.6145 71.5825 51.5652 71.677C51.5159 71.7714 51.4476 71.8547 51.3646 71.9215C51.2817 71.9883 51.1858 72.0373 51.083 72.0654C50.9803 72.0934 50.8728 72.1 50.7674 72.0846C50.662 72.0691 50.5609 72.0321 50.4704 71.9759C50.3799 71.9196 50.3021 71.8452 50.2417 71.7574C50.1813 71.6696 50.1397 71.5703 50.1195 71.4657C50.0993 71.3611 50.1009 71.2535 50.1242 71.1495L50.8825 66.0607ZM45.4494 62.3324C45.6023 62.198 45.8022 62.1298 46.0054 62.1425C46.2086 62.1553 46.3984 62.2481 46.5333 62.4005C46.6682 62.553 46.7371 62.7527 46.725 62.9559C46.7129 63.1591 46.6208 63.3493 46.4688 63.4847L42.6174 66.8964C42.5418 66.9637 42.4536 67.0155 42.358 67.0487C42.2623 67.0819 42.1611 67.0959 42.06 67.0899C41.959 67.0839 41.8601 67.058 41.769 67.0136C41.678 66.9693 41.5966 66.9075 41.5295 66.8317C41.4624 66.7559 41.411 66.6675 41.3781 66.5718C41.3452 66.476 41.3316 66.3747 41.3379 66.2737C41.3443 66.1726 41.3705 66.0739 41.4151 65.983C41.4597 65.8921 41.5219 65.8109 41.5979 65.7441L45.4494 62.3324ZM43.6813 55.9836L38.5383 56.1216C38.4373 56.124 38.3377 56.1462 38.2453 56.187C38.1529 56.2279 38.0694 56.2866 37.9996 56.3597C37.9299 56.4328 37.8752 56.5189 37.8387 56.6131C37.8023 56.7074 37.7847 56.8079 37.7871 56.9089C37.7895 57.0099 37.8117 57.1095 37.8525 57.2019C37.8934 57.2943 37.9521 57.3778 38.0252 57.4476C38.0983 57.5173 38.1844 57.572 38.2786 57.6085C38.3729 57.6449 38.4734 57.6625 38.5744 57.6601L43.718 57.5228C43.9199 57.5146 44.1105 57.4275 44.2487 57.2801C44.3868 57.1328 44.4616 56.937 44.4568 56.7351C44.4519 56.5331 44.3679 56.3412 44.2229 56.2006C44.0778 56.06 43.8833 55.9821 43.6813 55.9836ZM62.5646 54.144L67.3503 52.2553C67.5232 52.1693 67.6576 52.0219 67.7273 51.8419C67.797 51.6619 67.7969 51.4624 67.7271 51.2824C67.6572 51.1025 67.5226 50.9552 67.3497 50.8694C67.1769 50.7836 66.9781 50.7655 66.7926 50.8187L62.0036 52.708C61.9006 52.7382 61.8051 52.7894 61.723 52.8585C61.6409 52.9276 61.5741 53.0131 61.5269 53.1093C61.4796 53.2056 61.4528 53.3107 61.4483 53.4179C61.4438 53.5251 61.4616 53.6321 61.5007 53.732C61.5397 53.8319 61.5991 53.9227 61.6751 53.9984C61.751 54.0742 61.8419 54.1333 61.942 54.172C62.042 54.2108 62.149 54.2283 62.2562 54.2234C62.3634 54.2186 62.4684 54.1915 62.5646 54.144ZM62.0571 60.7126L66.937 62.3427C67.1307 62.4075 67.3422 62.3927 67.525 62.3016C67.7077 62.2105 67.8468 62.0505 67.9117 61.8568C67.9765 61.6632 67.9617 61.4517 67.8706 61.2689C67.7795 61.0861 67.6195 60.947 67.4258 60.8822L62.5452 59.2528C62.4486 59.2177 62.346 59.2023 62.2433 59.2075C62.1407 59.2127 62.0401 59.2384 61.9476 59.2831C61.855 59.3278 61.7723 59.3905 61.7044 59.4677C61.6365 59.5448 61.5847 59.6348 61.5521 59.7323C61.5196 59.8297 61.5068 59.9327 61.5147 60.0352C61.5225 60.1377 61.5508 60.2376 61.5979 60.3289C61.6449 60.4203 61.7098 60.5013 61.7887 60.5672C61.8675 60.6331 61.9588 60.6826 62.0571 60.7126ZM57.4422 65.4197C57.338 65.2454 57.3068 65.0369 57.3555 64.8397C57.4041 64.6425 57.5287 64.4724 57.7021 64.3666C57.8755 64.2608 58.0837 64.2277 58.2814 64.2746C58.479 64.3215 58.6502 64.4445 58.7576 64.617L61.4478 69.0017C61.5039 69.088 61.5422 69.1848 61.5603 69.2862C61.5784 69.3876 61.576 69.4917 61.5532 69.5921C61.5304 69.6926 61.4877 69.7875 61.4276 69.8711C61.3675 69.9548 61.2912 70.0256 61.2033 70.0793C61.1153 70.133 61.0175 70.1685 60.9156 70.1837C60.8138 70.1989 60.7098 70.1936 60.6101 70.168C60.5103 70.1423 60.4166 70.097 60.3347 70.0345C60.2528 69.9721 60.1842 69.8939 60.133 69.8045L57.4422 65.4197Z" fill="#E4322B"/>
</svg>
