<svg width="87" height="87" viewBox="0 0 87 87" fill="none" xmlns="http://www.w3.org/2000/svg">
<rect width="87" height="87" rx="4" fill="#FFECEC"/>
<path d="M56.8117 60.4242H29.7747C27.7624 60.4242 26.1284 58.7902 26.1284 56.7779V44.901C26.1284 44.4774 26.4613 44.1445 26.8849 44.1445C27.3085 44.1445 27.6414 44.4774 27.6414 44.901V56.7779C27.6414 57.958 28.5946 58.9112 29.7747 58.9112H56.8117C57.9918 58.9112 58.945 57.958 58.945 56.7779V44.901C58.945 44.4774 59.2778 44.1445 59.7014 44.1445C60.1251 44.1445 60.4579 44.4774 60.4579 44.901V56.7779C60.4579 58.7902 58.8239 60.4242 56.8117 60.4242Z" fill="#E4322B"/>
<path d="M49.1408 35.4146C48.7171 35.4146 48.3843 35.0818 48.3843 34.6581V31.7532C48.3843 30.8908 48.0514 30.0889 47.4311 29.4686C46.8108 28.8483 46.0089 28.5154 45.1465 28.5154H41.4246C40.5622 28.5154 39.7603 28.8483 39.14 29.4686C38.5348 30.0738 38.1868 30.8908 38.1868 31.7532V34.6581C38.1868 35.0818 37.854 35.4146 37.4303 35.4146C37.0067 35.4146 36.6738 35.0818 36.6738 34.6581V31.7532C36.6738 30.4823 37.1731 29.3022 38.0658 28.4095C38.9584 27.5169 40.1537 27.0176 41.4095 27.0176H45.1314C46.4023 27.0176 47.5824 27.5169 48.4751 28.4095C49.3677 29.3022 49.867 30.4974 49.867 31.7532V34.6581C49.8973 35.0666 49.5644 35.4146 49.1408 35.4146ZM45.6912 35.4146C45.2676 35.4146 44.9347 35.0818 44.9347 34.6581V31.965H41.6515V34.6581C41.6515 35.0818 41.3187 35.4146 40.895 35.4146C40.4714 35.4146 40.1386 35.0818 40.1386 34.6581V31.7532C40.1386 31.4052 40.2747 31.0875 40.5168 30.8454C40.7589 30.6033 41.0917 30.4672 41.4246 30.4672H45.1465C45.4945 30.4672 45.8122 30.6033 46.0543 30.8454C46.2964 31.0875 46.4325 31.4203 46.4325 31.7532V34.6581C46.4477 35.0666 46.1148 35.4146 45.6912 35.4146Z" fill="#E4322B"/>
<path d="M60.7905 45.6567H47.0527C46.629 45.6567 46.2962 45.3239 46.2962 44.9002V43.7806H40.2897V44.9002C40.2897 45.3239 39.9568 45.6567 39.5332 45.6567H25.7953C25.3717 45.6567 25.0388 45.3239 25.0388 44.9002V36.8663C25.0388 35.2172 26.3702 33.8857 28.0194 33.8857H58.5665C60.2156 33.8857 61.547 35.2172 61.547 36.8663V44.9002C61.547 45.3239 61.199 45.6567 60.7905 45.6567ZM47.8092 44.1437H60.034V36.8663C60.034 36.0644 59.3835 35.3987 58.5665 35.3987H28.0194C27.2175 35.3987 26.5518 36.0493 26.5518 36.8663V44.1437H38.7767V43.0241C38.7767 42.6005 39.1095 42.2677 39.5332 42.2677H47.0527C47.4763 42.2677 47.8092 42.6005 47.8092 43.0241V44.1437Z" fill="#E4322B"/>
<path d="M47.0531 47.5494H39.5336C39.11 47.5494 38.7771 47.2165 38.7771 46.7929V43.0407C38.7771 42.617 39.11 42.2842 39.5336 42.2842H47.0531C47.4767 42.2842 47.8096 42.617 47.8096 43.0407V46.7929C47.8096 47.2014 47.4767 47.5494 47.0531 47.5494ZM40.2901 46.0364H46.2966V43.7972H40.2901V46.0364Z" fill="#E4322B"/>
<path d="M45.0103 60.4236C44.5867 60.4236 44.2538 60.0907 44.2538 59.6671V46.7916C44.2538 46.368 44.5867 46.0352 45.0103 46.0352C45.4339 46.0352 45.7668 46.368 45.7668 46.7916V59.6671C45.7668 60.0756 45.4188 60.4236 45.0103 60.4236ZM41.5758 60.4236C41.1522 60.4236 40.8193 60.0907 40.8193 59.6671V46.7916C40.8193 46.368 41.1522 46.0352 41.5758 46.0352C41.9995 46.0352 42.3323 46.368 42.3323 46.7916V59.6671C42.3323 60.0756 41.9995 60.4236 41.5758 60.4236Z" fill="#E4322B"/>
<path d="M32.4376 55.3708C32.014 55.3708 31.6812 55.0379 31.6812 54.6143V50.0905C31.6812 49.6668 32.014 49.334 32.4376 49.334C32.8613 49.334 33.1941 49.6668 33.1941 50.0905V54.6143C33.1941 55.0228 32.8613 55.3708 32.4376 55.3708Z" fill="#E4322B"/>
<path d="M36.0536 55.3708C35.63 55.3708 35.2971 55.0379 35.2971 54.6143V50.0905C35.2971 49.6668 35.63 49.334 36.0536 49.334C36.4772 49.334 36.8101 49.6668 36.8101 50.0905V54.6143C36.8101 55.0228 36.4772 55.3708 36.0536 55.3708Z" fill="#E4322B"/>
<path d="M50.5329 55.3708C50.1092 55.3708 49.7764 55.0379 49.7764 54.6143V50.0905C49.7764 49.6668 50.1092 49.334 50.5329 49.334C50.9565 49.334 51.2893 49.6668 51.2893 50.0905V54.6143C51.2893 55.0228 50.9565 55.3708 50.5329 55.3708Z" fill="#E4322B"/>
<path d="M54.1486 55.3708C53.7249 55.3708 53.3921 55.0379 53.3921 54.6143V50.0905C53.3921 49.6668 53.7249 49.334 54.1486 49.334C54.5722 49.334 54.9051 49.6668 54.9051 50.0905V54.6143C54.9051 55.0228 54.5722 55.3708 54.1486 55.3708Z" fill="#E4322B"/>
<path d="M39.8813 39.5901H32.0138C31.5902 39.5901 31.2573 39.2573 31.2573 38.8336C31.2573 38.41 31.5902 38.0771 32.0138 38.0771H39.8813C40.3049 38.0771 40.6378 38.41 40.6378 38.8336C40.6378 39.2573 40.3049 39.5901 39.8813 39.5901Z" fill="#E4322B"/>
<path d="M54.5725 39.5901H46.705C46.2813 39.5901 45.9485 39.2573 45.9485 38.8336C45.9485 38.41 46.2813 38.0771 46.705 38.0771H54.5725C54.9961 38.0771 55.329 38.41 55.329 38.8336C55.329 39.2573 54.9961 39.5901 54.5725 39.5901Z" fill="#E4322B"/>
<path d="M57.7948 19.3613C57.6586 19.3613 57.5376 19.331 57.4165 19.2554C53.1348 16.7741 48.2479 15.4729 43.3004 15.4729C42.8768 15.4729 42.5439 15.1401 42.5439 14.7165C42.5439 14.2928 42.8768 13.96 43.3004 13.96C48.5202 13.96 53.6643 15.3368 58.173 17.9391C58.5361 18.1509 58.6572 18.6048 58.4454 18.9679C58.3092 19.2251 58.052 19.3613 57.7948 19.3613Z" fill="#E4322B"/>
<path d="M46.8256 19.0141C46.6289 19.0141 46.4322 18.9385 46.296 18.7872L42.7556 15.2468C42.4682 14.9442 42.4682 14.4752 42.7556 14.1726L46.296 10.6322C46.5986 10.3296 47.0676 10.3296 47.3702 10.6322C47.6728 10.9348 47.6728 11.4038 47.3702 11.7064L44.3745 14.7021L47.3702 17.6978C47.6728 17.9853 47.6728 18.4695 47.3702 18.7721C47.2189 18.9385 47.0222 19.0141 46.8256 19.0141Z" fill="#E4322B"/>
<path d="M14.2968 44.4617C13.8731 44.4617 13.5403 44.1288 13.5403 43.7052C13.5403 38.4854 14.9171 33.3413 17.5194 28.8326C17.7312 28.4695 18.1851 28.3485 18.5482 28.5603C18.9114 28.7721 19.0324 29.226 18.8206 29.5891C16.3393 33.8708 15.0381 38.7578 15.0381 43.7052C15.0533 44.1288 14.7204 44.4617 14.2968 44.4617Z" fill="#E4322B"/>
<path d="M14.2969 44.4629C14.1002 44.4629 13.9035 44.3873 13.7673 44.236L10.2269 40.7107C9.92435 40.4232 9.92435 39.9391 10.2269 39.6365C10.5295 39.349 10.9986 39.349 11.3012 39.6365L14.2969 42.6322L17.2926 39.6365C17.58 39.349 18.0642 39.349 18.3668 39.6365C18.6694 39.924 18.6542 40.4081 18.3668 40.7107L14.8264 44.2511C14.6902 44.4024 14.4936 44.4629 14.2969 44.4629Z" fill="#E4322B"/>
<path d="M43.3007 73.4651C38.0809 73.4651 32.9368 72.0883 28.4281 69.4708C28.065 69.259 27.9439 68.8051 28.1557 68.442C28.3676 68.0789 28.8215 67.9578 29.1846 68.1697C33.4663 70.6509 38.3532 71.9521 43.3007 71.9521C43.7243 71.9521 44.0572 72.285 44.0572 72.7086C44.0572 73.1322 43.7092 73.4651 43.3007 73.4651Z" fill="#E4322B"/>
<path d="M39.7598 77.0058C39.5631 77.0058 39.3664 76.9302 39.2302 76.7789C38.9428 76.4763 38.9428 76.0073 39.2302 75.7047L42.2259 72.709L39.2302 69.7133C38.9428 69.4107 38.9428 68.9417 39.2302 68.6391C39.5177 68.3365 40.0019 68.3365 40.3045 68.6391L43.8448 72.1794C44.1323 72.482 44.1323 72.951 43.8448 73.2536L40.3045 76.794C40.138 76.9302 39.9565 77.0058 39.7598 77.0058Z" fill="#E4322B"/>
<path d="M68.4011 58.9712C68.2649 58.9712 68.1438 58.9409 68.0228 58.8653C67.6597 58.6535 67.5386 58.1996 67.7505 57.8365C70.2318 53.5547 71.5329 48.6678 71.5329 43.7204C71.5329 43.2967 71.8658 42.9639 72.2894 42.9639C72.713 42.9639 73.0459 43.2967 73.0459 43.7204C73.0459 48.9401 71.6691 54.0843 69.0516 58.5929C68.9155 58.835 68.6734 58.9712 68.4011 58.9712Z" fill="#E4322B"/>
<path d="M75.8297 48.0031C75.633 48.0031 75.4363 47.9274 75.3001 47.7761L72.3044 44.7804L69.3087 47.7761C69.0061 48.0787 68.5371 48.0787 68.2345 47.7761C67.9319 47.4735 67.9319 47.0045 68.2345 46.7019L71.7749 43.1615C71.9111 43.0253 72.1077 42.9346 72.3044 42.9346C72.5011 42.9346 72.6978 43.0102 72.834 43.1615L76.3743 46.7019C76.6769 47.0045 76.6769 47.4735 76.3743 47.7761C76.223 47.9274 76.0264 48.0031 75.8297 48.0031Z" fill="#E4322B"/>
<path d="M24.434 22.4468C24.2222 22.4468 24.0104 22.356 23.8591 22.1744C23.5867 21.8567 23.617 21.3726 23.9347 21.1002C27.2935 18.2256 31.318 16.0923 35.5998 14.9575C36.0083 14.8516 36.4168 15.0937 36.5227 15.4871C36.6286 15.8956 36.3865 16.3041 35.9932 16.41C31.9384 17.4993 28.1105 19.5116 24.9333 22.2501C24.782 22.3863 24.6004 22.4468 24.434 22.4468Z" fill="#E4322B"/>
<path d="M22.7853 26.1999C21.1361 26.1999 19.8047 24.8534 19.8047 23.2042C19.8047 21.5551 21.1512 20.2236 22.7853 20.2236C24.4193 20.2236 25.7658 21.5702 25.7658 23.2042C25.7658 24.8382 24.4344 26.1999 22.7853 26.1999ZM22.7853 21.7366C21.9682 21.7366 21.3177 22.4023 21.3177 23.2042C21.3177 24.0212 21.9834 24.6718 22.7853 24.6718C23.5871 24.6718 24.2528 24.0061 24.2528 23.2042C24.268 22.3872 23.6023 21.7366 22.7853 21.7366Z" fill="#E4322B"/>
<path d="M21.2718 63.3442C21.06 63.3442 20.8482 63.2535 20.6969 63.0719C17.8223 59.7131 15.6889 55.6886 14.5542 51.4068C14.4483 50.9983 14.6904 50.5898 15.0838 50.4839C15.4771 50.378 15.9008 50.6201 16.0067 51.0134C17.096 55.0682 19.1083 58.8961 21.8468 62.0733C22.1191 62.3911 22.0889 62.8752 21.7711 63.1324C21.6198 63.2686 21.4534 63.3442 21.2718 63.3442Z" fill="#E4322B"/>
<path d="M22.785 67.2024C21.1359 67.2024 19.8044 65.8558 19.8044 64.2218C19.8044 62.5726 21.151 61.2412 22.785 61.2412C24.419 61.2412 25.7656 62.5878 25.7656 64.2218C25.7807 65.8558 24.4342 67.2024 22.785 67.2024ZM22.785 62.7391C21.968 62.7391 21.3174 63.4048 21.3174 64.2067C21.3174 65.0085 21.9831 65.6742 22.785 65.6742C23.5869 65.6742 24.2526 65.0085 24.2526 64.2067C24.2526 63.4048 23.602 62.7391 22.785 62.7391Z" fill="#E4322B"/>
<path d="M50.8049 72.4825C50.472 72.4825 50.1694 72.2555 50.0786 71.9227C49.9727 71.5142 50.2148 71.1057 50.6082 70.9998C54.663 69.9104 58.4908 67.8981 61.6681 65.1596C61.9858 64.8873 62.4699 64.9327 62.7271 65.2353C62.9995 65.553 62.9541 66.0372 62.6515 66.2944C59.2927 69.169 55.2681 71.3023 50.9864 72.4371C50.9259 72.4673 50.8654 72.4825 50.8049 72.4825Z" fill="#E4322B"/>
<path d="M63.8014 67.2024C62.1522 67.2024 60.8208 65.8558 60.8208 64.2218C60.8208 62.5726 62.1674 61.2412 63.8014 61.2412C65.4505 61.2412 66.7819 62.5878 66.7819 64.2218C66.7819 65.8558 65.4505 67.2024 63.8014 67.2024ZM63.8014 62.7391C62.9844 62.7391 62.3338 63.4048 62.3338 64.2067C62.3338 65.0085 62.9995 65.6742 63.8014 65.6742C64.6032 65.6742 65.269 65.0085 65.269 64.2067C65.269 63.4048 64.6184 62.7391 63.8014 62.7391Z" fill="#E4322B"/>
<path d="M71.3056 36.9573C70.9727 36.9573 70.6701 36.7303 70.5793 36.3975C69.49 32.3427 67.4777 28.5148 64.7392 25.3376C64.4669 25.0198 64.5123 24.5357 64.8149 24.2634C65.1326 23.991 65.6168 24.0213 65.874 24.339C68.7486 27.6978 70.8819 31.7223 72.0167 36.0041C72.1226 36.4126 71.8805 36.8211 71.4871 36.927C71.4417 36.9573 71.3661 36.9573 71.3056 36.9573Z" fill="#E4322B"/>
<path d="M63.8016 26.2004C62.1525 26.2004 60.821 24.8538 60.821 23.2198C60.821 21.5858 62.1676 20.2393 63.8016 20.2393C65.4508 20.2393 66.7822 21.5858 66.7822 23.2198C66.7822 24.8538 65.4508 26.2004 63.8016 26.2004ZM63.8016 21.7371C62.9846 21.7371 62.334 22.4028 62.334 23.2047C62.334 24.0217 62.9997 24.6723 63.8016 24.6723C64.6035 24.6723 65.2692 24.0066 65.2692 23.2047C65.2692 22.3877 64.6186 21.7371 63.8016 21.7371Z" fill="#E4322B"/>
</svg>
