<svg width="87" height="87" viewBox="0 0 87 87" fill="none" xmlns="http://www.w3.org/2000/svg">
<rect width="87" height="87" rx="4" fill="#FFECEC"/>
<path fill-rule="evenodd" clip-rule="evenodd" d="M37.3323 30.631C37.2774 30.629 32.4694 30.6271 32.4694 30.6271C31.9279 30.6271 31.4885 30.1876 31.4885 29.6462L31.4885 15.5556C31.4885 15.0142 31.9279 14.5748 32.4694 14.5748L48.8218 14.5748C50.705 14.5748 52.3332 15.893 52.7216 17.737L54.4243 25.821C54.6715 26.996 54.3772 28.2201 53.62 29.1538C52.8628 30.0856 51.727 30.6271 50.5265 30.6271L47.5428 30.6271L47.5428 35.3272C47.5428 37.0554 46.1422 38.4561 44.4139 38.4561L44.41 38.4561C43.2762 38.4561 42.262 37.7518 41.8677 36.6886C41.5028 35.7058 40.9575 34.2365 40.469 32.9241C39.9766 31.5941 38.7369 30.6977 37.3323 30.631ZM36.1867 28.6654L36.1867 16.5364L33.4502 16.5364L33.4502 28.6654L36.1867 28.6654ZM38.1484 16.5364L38.1484 28.7537C40.0296 29.095 41.6264 30.4034 42.3071 32.2395L43.7058 36.006C43.8156 36.2982 44.0961 36.4944 44.41 36.4944L44.4139 36.4944C45.0574 36.4944 45.5811 35.9726 45.5811 35.3272L45.5811 29.6462C45.5811 29.1048 46.0205 28.6654 46.562 28.6654C46.562 28.6654 48.5668 28.6654 50.5265 28.6654C51.1366 28.6654 51.7133 28.3908 52.0958 27.918C52.4803 27.4433 52.6314 26.8234 52.5058 26.2271L50.8011 18.1411C50.605 17.2053 49.7791 16.5364 48.8218 16.5364L38.1484 16.5364Z" fill="#E4322B"/>
<path fill-rule="evenodd" clip-rule="evenodd" d="M43.0003 41.1904C39.002 41.1904 35.7566 44.4359 35.7566 48.4341C35.7566 52.4324 39.002 55.6778 43.0003 55.6778C46.9985 55.6778 50.244 52.4324 50.244 48.4341C50.244 44.4359 46.9985 41.1904 43.0003 41.1904ZM43.0003 43.152C45.9151 43.152 48.2824 45.5194 48.2824 48.4341C48.2824 51.3489 45.9151 53.7163 43.0003 53.7163C40.0855 53.7163 37.7181 51.3489 37.7181 48.4341C37.7181 45.5194 40.0855 43.152 43.0003 43.152Z" fill="#E4322B"/>
<path fill-rule="evenodd" clip-rule="evenodd" d="M27.4296 43.4482C23.9083 43.4482 21.05 46.3065 21.05 49.8278C21.05 53.3491 23.9083 56.2074 27.4296 56.2074C30.9509 56.2074 33.8092 53.3491 33.8092 49.8278C33.8092 46.3065 30.9509 43.4482 27.4296 43.4482ZM27.4296 45.4092C29.8678 45.4092 31.8482 47.3896 31.8482 49.8278C31.8482 52.266 29.8678 54.2464 27.4296 54.2464C24.9914 54.2464 23.011 52.266 23.011 49.8278C23.011 47.3896 24.9914 45.4092 27.4296 45.4092Z" fill="#E4322B"/>
<path fill-rule="evenodd" clip-rule="evenodd" d="M58.5704 43.4482C55.0491 43.4482 52.1908 46.3065 52.1908 49.8278C52.1908 53.3491 55.0491 56.2074 58.5704 56.2074C62.0917 56.2074 64.95 53.3491 64.95 49.8278C64.95 46.3065 62.0917 43.4482 58.5704 43.4482ZM58.5704 45.4092C61.0086 45.4092 62.989 47.3896 62.989 49.8278C62.989 52.266 61.0086 54.2464 58.5704 54.2464C56.1322 54.2464 54.1518 52.266 54.1518 49.8278C54.1518 47.3896 56.1322 45.4092 58.5704 45.4092Z" fill="#E4322B"/>
<path fill-rule="evenodd" clip-rule="evenodd" d="M34.8946 61.6842C32.9878 58.928 30.3199 56.9467 27.4304 56.9467C25.0803 56.9467 22.8813 58.2316 21.1197 60.207C18.6167 63.0102 17.0002 67.1866 17.0002 70.5254C17.0002 71.0668 17.4397 71.5062 17.9811 71.5062H31.0948C31.0713 71.822 31.0595 72.1359 31.0595 72.4419C31.0595 72.9833 31.4989 73.4227 32.0403 73.4227H53.96C54.5014 73.4227 54.9408 72.9833 54.9408 72.4419C54.9408 72.1359 54.929 71.822 54.9055 71.5062H68.0192C68.5606 71.5062 69.0001 71.0668 69.0001 70.5254C69.0001 67.1866 67.3836 63.0102 64.8806 60.207C63.119 58.2316 60.92 56.9467 58.5699 56.9467C55.6804 56.9467 53.0125 58.928 51.1057 61.6842C50.8174 61.2977 50.5173 60.9289 50.2034 60.5778C48.1907 58.3238 45.6837 56.8467 43.0001 56.8467C40.3166 56.8467 37.8096 58.3238 35.7969 60.5778C35.483 60.9289 35.1829 61.2977 34.8946 61.6842ZM33.0643 71.4611C33.3429 68.2361 34.9377 64.4854 37.2603 61.8842C38.8767 60.0736 40.8443 58.8083 43.0001 58.8083C45.156 58.8083 47.1236 60.0736 48.74 61.8842C51.0626 64.4854 52.6574 68.2361 52.936 71.4611H33.0643ZM54.6309 69.5445C57.2379 69.5445 66.9874 69.5445 66.9874 69.5445C66.7147 66.8237 65.3651 63.6948 63.4172 61.5135C62.0518 59.9834 60.3923 58.9084 58.5699 58.9084C56.0393 58.9084 53.8266 60.9309 52.2847 63.4653C53.4009 65.376 54.215 67.5024 54.6309 69.5445ZM33.7156 63.4653C32.1737 60.9309 29.961 58.9084 27.4304 58.9084C25.608 58.9084 23.9485 59.9834 22.5831 61.5135C20.6352 63.6948 19.2856 66.8237 19.0129 69.5445H31.3694C31.7853 67.5024 32.5994 65.376 33.7156 63.4653Z" fill="#E4322B"/>
</svg>
