<svg width="577" height="340" viewBox="0 0 577 340" fill="none" xmlns="http://www.w3.org/2000/svg">
<path d="M55.5772 328.463C57.5931 331.993 59.6089 335.796 61.0045 338.496H533.572C537.586 330.287 552.791 294.202 547.227 229.038C540.842 154.242 459.661 60.2899 380.303 32.0131C300.946 3.73642 271.757 55.7291 226.15 85.8301C180.542 115.931 118.516 84.918 56.4894 123.228C-5.53699 161.539 -9.1856 235.423 10.8817 273.733C30.9491 312.044 51.9286 322.078 55.5772 328.463Z" fill="#E4322B"/>
<path opacity="0.7" d="M55.5772 328.463C57.5931 331.993 59.6089 335.796 61.0045 338.496H533.572C537.586 330.287 552.791 294.202 547.227 229.038C540.842 154.242 459.661 60.2899 380.303 32.0131C300.946 3.73642 271.757 55.7291 226.15 85.8301C180.542 115.931 118.516 84.918 56.4894 123.228C-5.53699 161.539 -9.1856 235.423 10.8817 273.733C30.9491 312.044 51.9286 322.078 55.5772 328.463Z" fill="white"/>
<path d="M558.629 213.077H28.6689V216.726H558.629V213.077Z" fill="#263238"/>
<path d="M371.182 163.547V43.8086" stroke="#263238" stroke-linecap="round" stroke-linejoin="round"/>
<path d="M371.182 215.139V169.367" stroke="#263238" stroke-linecap="round" stroke-linejoin="round"/>
<path d="M217.941 77.5584V44.876" stroke="#263238" stroke-linecap="round" stroke-linejoin="round"/>
<path d="M217.941 215.137V83.377" stroke="#263238" stroke-linecap="round" stroke-linejoin="round"/>
<path d="M524.734 69.7958V43.8086" stroke="#263238" stroke-linecap="round" stroke-linejoin="round"/>
<path d="M524.734 215.138V75.6152" stroke="#263238" stroke-linecap="round" stroke-linejoin="round"/>
<path d="M64.3889 215.138V44.876" stroke="#263238" stroke-linecap="round" stroke-linejoin="round"/>
<path d="M515.977 131.038H544.099" stroke="#263238" stroke-linecap="round" stroke-linejoin="round"/>
<path d="M137.096 131.038H511.453" stroke="#263238" stroke-linecap="round" stroke-linejoin="round"/>
<path d="M51.0166 131.038H132.572" stroke="#263238" stroke-linecap="round" stroke-linejoin="round"/>
<path d="M314.318 100.061L312.211 101.356" stroke="#263238" stroke-width="0.5" stroke-linecap="round" stroke-linejoin="round"/>
<path d="M349.728 78.2422L317.137 98.3187" stroke="#263238" stroke-width="0.5" stroke-linecap="round" stroke-linejoin="round"/>
<path d="M354.024 79.5918L327.919 95.6822" stroke="#263238" stroke-width="0.5" stroke-linecap="round" stroke-linejoin="round"/>
<path d="M365.426 72.5684L357.545 77.4301" stroke="#263238" stroke-width="0.5" stroke-linecap="round" stroke-linejoin="round"/>
<path d="M106.384 100.061L104.286 101.356" stroke="#263238" stroke-width="0.5" stroke-linecap="round" stroke-linejoin="round"/>
<path d="M141.794 78.2422L109.203 98.3187" stroke="#263238" stroke-width="0.5" stroke-linecap="round" stroke-linejoin="round"/>
<path d="M146.09 79.5918L119.984 95.6822" stroke="#263238" stroke-width="0.5" stroke-linecap="round" stroke-linejoin="round"/>
<path d="M157.492 72.5684L149.611 77.4301" stroke="#263238" stroke-width="0.5" stroke-linecap="round" stroke-linejoin="round"/>
<path d="M438.435 100.061L436.337 101.356" stroke="#263238" stroke-width="0.5" stroke-linecap="round" stroke-linejoin="round"/>
<path d="M473.845 78.2422L441.254 98.3187" stroke="#263238" stroke-width="0.5" stroke-linecap="round" stroke-linejoin="round"/>
<path d="M478.141 79.5918L452.035 95.6822" stroke="#263238" stroke-width="0.5" stroke-linecap="round" stroke-linejoin="round"/>
<path d="M489.543 72.5684L481.662 77.4301" stroke="#263238" stroke-width="0.5" stroke-linecap="round" stroke-linejoin="round"/>
<path d="M179.995 172.329L118.498 210.22" stroke="#263238" stroke-width="0.5" stroke-linecap="round" stroke-linejoin="round"/>
<path d="M188.104 174.884L138.839 205.249" stroke="#263238" stroke-width="0.5" stroke-linecap="round" stroke-linejoin="round"/>
<path d="M209.622 161.621L194.744 170.797" stroke="#263238" stroke-width="0.5" stroke-linecap="round" stroke-linejoin="round"/>
<path d="M335.407 210.275L331.439 212.72" stroke="#263238" stroke-width="0.5" stroke-linecap="round" stroke-linejoin="round"/>
<path d="M402.232 169.092L340.734 206.992" stroke="#263238" stroke-width="0.5" stroke-linecap="round" stroke-linejoin="round"/>
<path d="M410.341 171.654L361.075 202.02" stroke="#263238" stroke-width="0.5" stroke-linecap="round" stroke-linejoin="round"/>
<path d="M431.858 158.393L416.981 167.56" stroke="#263238" stroke-width="0.5" stroke-linecap="round" stroke-linejoin="round"/>
<path d="M149.839 39.8209V28.3643H135.244V39.8209C127.509 42.9496 122.009 50.8853 122.009 60.1984C122.009 60.3717 122.009 60.5359 122.018 60.7092H163.056C163.056 60.5359 163.065 60.3717 163.065 60.1984C163.065 50.8853 157.565 42.9496 149.83 39.8209H149.839Z" fill="#263238" stroke="#263238" stroke-linecap="round" stroke-linejoin="round"/>
<path d="M142.542 28.3646V1" stroke="#263238" stroke-linecap="round" stroke-linejoin="round"/>
<path d="M438.079 39.8209V28.3643H423.485V39.8209C415.75 42.9496 410.249 50.8853 410.249 60.1984C410.249 60.3717 410.249 60.5359 410.258 60.7092H451.296C451.296 60.5359 451.305 60.3717 451.305 60.1984C451.305 50.8853 445.805 42.9496 438.07 39.8209H438.079Z" fill="#263238" stroke="#263238" stroke-linecap="round" stroke-linejoin="round"/>
<path d="M430.782 28.3646V1" stroke="#263238" stroke-linecap="round" stroke-linejoin="round"/>
<path d="M1.30396 338.041L571.399 338.041" stroke="#263238" stroke-linecap="round" stroke-linejoin="round"/>
<path d="M535.524 205.997L545.978 306.133" stroke="#263238" stroke-width="2" stroke-miterlimit="10"/>
<path d="M544.29 286.97L539.556 281.972" stroke="#263238" stroke-width="2" stroke-miterlimit="10"/>
<path d="M540.997 283.467C540.997 283.467 541.134 281.251 539.109 279.445C537.896 278.359 531.492 275.668 530.881 277.921C530.225 280.375 536.774 285.191 540.988 283.467H540.997Z" fill="#E4322B" stroke="#263238" stroke-miterlimit="10"/>
<path d="M540.997 283.466L534.904 279.672" stroke="#263238" stroke-width="0.5" stroke-miterlimit="10"/>
<path d="M545.485 298.362L540.742 293.354" stroke="#263238" stroke-width="2" stroke-miterlimit="10"/>
<path d="M542.183 294.86C542.183 294.86 542.32 292.643 540.295 290.837C539.082 289.752 532.678 287.061 532.067 289.314C531.411 291.768 537.96 296.584 542.174 294.86H542.183Z" fill="#E4322B" stroke="#263238" stroke-miterlimit="10"/>
<path d="M542.183 294.86L536.09 291.057" stroke="#263238" stroke-width="0.5" stroke-miterlimit="10"/>
<path d="M541.389 259.185L536.655 254.178" stroke="#263238" stroke-width="2" stroke-miterlimit="10"/>
<path d="M538.097 255.673C538.097 255.673 538.233 253.457 536.208 251.651C534.995 250.565 528.592 247.874 527.981 250.127C527.324 252.581 533.873 257.397 538.088 255.673H538.097Z" fill="#E4322B" stroke="#263238" stroke-miterlimit="10"/>
<path d="M538.097 255.673L532.003 251.879" stroke="#263238" stroke-width="0.5" stroke-miterlimit="10"/>
<path d="M542.584 270.569L537.841 265.57" stroke="#263238" stroke-width="2" stroke-miterlimit="10"/>
<path d="M539.282 267.066C539.282 267.066 539.419 264.849 537.394 263.043C536.181 261.958 529.778 259.267 529.166 261.52C528.51 263.974 535.059 268.79 539.273 267.066H539.282Z" fill="#E4322B" stroke="#263238" stroke-miterlimit="10"/>
<path d="M539.282 267.066L533.189 263.271" stroke="#263238" stroke-width="0.5" stroke-miterlimit="10"/>
<path d="M539.465 240.678L534.722 235.68" stroke="#263238" stroke-width="2" stroke-miterlimit="10"/>
<path d="M536.163 237.175C536.163 237.175 536.3 234.959 534.275 233.153C533.062 232.067 526.658 229.376 526.047 231.629C525.391 234.083 531.94 238.899 536.154 237.175H536.163Z" fill="#E4322B" stroke="#263238" stroke-miterlimit="10"/>
<path d="M536.163 237.175L530.07 233.381" stroke="#263238" stroke-width="0.5" stroke-miterlimit="10"/>
<path d="M537.522 222.097L532.788 217.099" stroke="#263238" stroke-width="2" stroke-miterlimit="10"/>
<path d="M534.229 218.594C534.229 218.594 534.366 216.378 532.341 214.572C531.128 213.486 524.724 210.795 524.113 213.048C523.456 215.502 530.006 220.318 534.22 218.594H534.229Z" fill="#E4322B" stroke="#263238" stroke-miterlimit="10"/>
<path d="M534.229 218.594L528.136 214.8" stroke="#263238" stroke-width="0.5" stroke-miterlimit="10"/>
<path d="M543.497 280.239L547.1 274.364" stroke="#263238" stroke-width="2" stroke-miterlimit="10"/>
<path d="M546.005 276.124C546.005 276.124 545.412 273.99 547.017 271.801C547.984 270.487 553.685 266.529 554.753 268.608C555.902 270.87 550.493 276.936 546.005 276.115V276.124Z" fill="#E4322B" stroke="#263238" stroke-miterlimit="10"/>
<path d="M546.005 276.125L551.487 270.88" stroke="#263238" stroke-width="0.5" stroke-miterlimit="10"/>
<path d="M540.368 250.265L543.971 244.391" stroke="#263238" stroke-width="2" stroke-miterlimit="10"/>
<path d="M542.876 246.151C542.876 246.151 542.283 244.016 543.889 241.827C544.855 240.514 550.556 236.555 551.624 238.635C552.773 240.897 547.364 246.963 542.876 246.142V246.151Z" fill="#E4322B" stroke="#263238" stroke-miterlimit="10"/>
<path d="M542.876 246.15L548.358 240.905" stroke="#263238" stroke-width="0.5" stroke-miterlimit="10"/>
<path d="M539 237.094L542.593 231.22" stroke="#263238" stroke-width="2" stroke-miterlimit="10"/>
<path d="M541.499 232.98C541.499 232.98 540.906 230.845 542.511 228.656C543.478 227.343 549.179 223.384 550.246 225.464C551.395 227.726 545.986 233.792 541.499 232.971V232.98Z" fill="#E4322B" stroke="#263238" stroke-miterlimit="10"/>
<path d="M541.499 232.98L546.99 227.735" stroke="#263238" stroke-width="0.5" stroke-miterlimit="10"/>
<path d="M536.983 217.782L540.586 211.908" stroke="#263238" stroke-width="2" stroke-miterlimit="10"/>
<path d="M539.483 213.669C539.483 213.669 538.89 211.535 540.495 209.346C541.462 208.032 547.163 204.074 548.231 206.153C549.38 208.415 543.971 214.481 539.483 213.66V213.669Z" fill="#E4322B" stroke="#263238" stroke-miterlimit="10"/>
<path d="M539.483 213.668L544.974 208.433" stroke="#263238" stroke-width="0.5" stroke-miterlimit="10"/>
<path d="M535.442 205.442C535.442 205.442 534.849 203.307 536.454 201.118C537.421 199.805 543.122 195.846 544.189 197.926C545.339 200.188 539.93 206.254 535.442 205.433V205.442Z" fill="#E4322B" stroke="#263238" stroke-miterlimit="10"/>
<path d="M535.442 205.441L540.924 200.196" stroke="#263238" stroke-width="0.5" stroke-miterlimit="10"/>
<path d="M535.761 205.66C535.761 205.66 533.572 206.025 531.565 204.2C530.361 203.106 527.023 197.013 529.203 196.174C531.575 195.261 537.038 201.291 535.752 205.66H535.761Z" fill="#E4322B" stroke="#263238" stroke-miterlimit="10"/>
<path d="M535.761 205.66L531.119 199.658" stroke="#263238" stroke-width="0.5" stroke-miterlimit="10"/>
<path d="M563.09 219.789L552.7 319.934" stroke="#263238" stroke-width="2" stroke-miterlimit="10"/>
<path d="M554.999 300.833L551.396 294.959" stroke="#263238" stroke-width="2" stroke-miterlimit="10"/>
<path d="M552.491 296.73C552.491 296.73 553.084 294.595 551.469 292.406C550.502 291.092 544.792 287.143 543.734 289.223C542.585 291.485 548.003 297.551 552.481 296.73H552.491Z" fill="#E4322B" stroke="#263238" stroke-miterlimit="10"/>
<path d="M552.491 296.729L547.31 291.758" stroke="#263238" stroke-width="0.5" stroke-miterlimit="10"/>
<path d="M557.881 273.041L554.278 267.167" stroke="#263238" stroke-width="2" stroke-miterlimit="10"/>
<path d="M555.373 268.937C555.373 268.937 555.966 266.802 554.351 264.613C553.384 263.3 547.674 259.35 546.616 261.43C545.467 263.692 550.885 269.758 555.364 268.937H555.373Z" fill="#E4322B" stroke="#263238" stroke-miterlimit="10"/>
<path d="M555.373 268.936L550.192 263.965" stroke="#263238" stroke-width="0.5" stroke-miterlimit="10"/>
<path d="M556.705 284.433L553.093 278.559" stroke="#263238" stroke-width="2" stroke-miterlimit="10"/>
<path d="M554.196 280.319C554.196 280.319 554.78 278.185 553.175 275.996C552.208 274.682 546.498 270.733 545.439 272.812C544.29 275.075 549.708 281.14 554.187 280.319H554.196Z" fill="#E4322B" stroke="#263238" stroke-miterlimit="10"/>
<path d="M554.196 280.319L549.015 275.348" stroke="#263238" stroke-width="0.5" stroke-miterlimit="10"/>
<path d="M559.806 254.543L556.194 248.669" stroke="#263238" stroke-width="2" stroke-miterlimit="10"/>
<path d="M557.298 250.43C557.298 250.43 557.881 248.295 556.276 246.106C555.309 244.793 549.599 240.843 548.541 242.923C547.392 245.185 552.81 251.251 557.289 250.43H557.298Z" fill="#E4322B" stroke="#263238" stroke-miterlimit="10"/>
<path d="M557.298 250.429L552.117 245.458" stroke="#263238" stroke-width="0.5" stroke-miterlimit="10"/>
<path d="M561.73 235.952L558.127 230.087" stroke="#263238" stroke-width="2" stroke-miterlimit="10"/>
<path d="M559.222 231.848C559.222 231.848 559.806 229.713 558.2 227.524C557.234 226.211 551.523 222.261 550.465 224.341C549.316 226.603 554.734 232.669 559.213 231.848H559.222Z" fill="#E4322B" stroke="#263238" stroke-miterlimit="10"/>
<path d="M559.222 231.847L554.041 226.876" stroke="#263238" stroke-width="0.5" stroke-miterlimit="10"/>
<path d="M555.61 294.074L560.344 289.066" stroke="#263238" stroke-width="2" stroke-miterlimit="10"/>
<path d="M558.903 290.572C558.903 290.572 558.766 288.356 560.782 286.55C561.995 285.464 568.399 282.764 569.001 285.017C569.667 287.471 563.117 292.287 558.894 290.563L558.903 290.572Z" fill="#E4322B" stroke="#263238" stroke-miterlimit="10"/>
<path d="M558.903 290.573L565.352 286.568" stroke="#263238" stroke-width="0.5" stroke-miterlimit="10"/>
<path d="M558.721 264.101L563.455 259.094" stroke="#263238" stroke-width="2" stroke-miterlimit="10"/>
<path d="M562.014 260.599C562.014 260.599 561.877 258.382 563.893 256.576C565.106 255.491 571.509 252.791 572.111 255.044C572.777 257.497 566.228 262.313 562.004 260.59L562.014 260.599Z" fill="#E4322B" stroke="#263238" stroke-miterlimit="10"/>
<path d="M562.013 260.599L568.462 256.595" stroke="#263238" stroke-width="0.5" stroke-miterlimit="10"/>
<path d="M560.08 250.93L564.814 245.922" stroke="#263238" stroke-width="2" stroke-miterlimit="10"/>
<path d="M563.382 247.428C563.382 247.428 563.245 245.211 565.261 243.405C566.474 242.32 572.877 239.62 573.479 241.873C574.145 244.326 567.596 249.143 563.373 247.419L563.382 247.428Z" fill="#E4322B" stroke="#263238" stroke-miterlimit="10"/>
<path d="M563.382 247.428L569.831 243.424" stroke="#263238" stroke-width="0.5" stroke-miterlimit="10"/>
<path d="M562.087 231.62L566.821 226.612" stroke="#263238" stroke-width="2" stroke-miterlimit="10"/>
<path d="M565.38 228.117C565.38 228.117 565.243 225.901 567.259 224.095C568.472 223.009 574.875 220.309 575.477 222.562C576.143 225.016 569.594 229.832 565.371 228.108L565.38 228.117Z" fill="#E4322B" stroke="#263238" stroke-miterlimit="10"/>
<path d="M565.38 228.118L571.829 224.113" stroke="#263238" stroke-width="0.5" stroke-miterlimit="10"/>
<path d="M563.118 219.225C563.118 219.225 562.981 217.008 564.997 215.202C566.21 214.117 572.613 211.417 573.215 213.67C573.881 216.123 567.332 220.939 563.108 219.216L563.118 219.225Z" fill="#E4322B" stroke="#263238" stroke-miterlimit="10"/>
<path d="M563.117 219.224L569.566 215.22" stroke="#263238" stroke-width="0.5" stroke-miterlimit="10"/>
<path d="M563.382 219.507C563.382 219.507 561.165 219.406 559.578 217.208C558.62 215.885 556.614 209.236 558.921 208.871C561.43 208.47 565.535 215.484 563.382 219.507Z" fill="#E4322B" stroke="#263238" stroke-miterlimit="10"/>
<path d="M563.382 219.507L560.08 212.675" stroke="#263238" stroke-width="0.5" stroke-miterlimit="10"/>
<path d="M551.186 179.007V305.65" stroke="#263238" stroke-width="2" stroke-miterlimit="10"/>
<path d="M551.286 286.605L547.09 281.142" stroke="#263238" stroke-width="2" stroke-miterlimit="10"/>
<path d="M548.367 282.783C548.367 282.783 548.732 280.594 546.908 278.587C545.813 277.383 539.729 274.036 538.89 276.216C537.978 278.587 543.998 284.051 548.367 282.774V282.783Z" fill="#E4322B" stroke="#263238" stroke-miterlimit="10"/>
<path d="M548.367 282.783L542.703 278.368" stroke="#263238" stroke-width="0.5" stroke-miterlimit="10"/>
<path d="M551.286 262.807L547.09 257.343" stroke="#263238" stroke-width="2" stroke-miterlimit="10"/>
<path d="M548.367 258.976C548.367 258.976 548.732 256.787 546.908 254.78C545.813 253.576 539.729 250.228 538.89 252.408C537.978 254.78 543.998 260.244 548.367 258.967V258.976Z" fill="#E4322B" stroke="#263238" stroke-miterlimit="10"/>
<path d="M548.367 258.976L542.703 254.57" stroke="#263238" stroke-width="0.5" stroke-miterlimit="10"/>
<path d="M551.286 234.867L547.09 229.395" stroke="#263238" stroke-width="2" stroke-miterlimit="10"/>
<path d="M548.367 231.036C548.367 231.036 548.732 228.847 546.908 226.84C545.813 225.636 539.729 222.289 538.89 224.469C537.978 226.84 543.998 232.304 548.367 231.027V231.036Z" fill="#E4322B" stroke="#263238" stroke-miterlimit="10"/>
<path d="M548.367 231.037L542.703 226.631" stroke="#263238" stroke-width="0.5" stroke-miterlimit="10"/>
<path d="M551.286 216.261L547.09 210.797" stroke="#263238" stroke-width="2" stroke-miterlimit="10"/>
<path d="M548.367 212.439C548.367 212.439 548.732 210.249 546.908 208.243C545.813 207.039 539.729 203.691 538.89 205.871C537.978 208.243 543.998 213.706 548.367 212.429V212.439Z" fill="#E4322B" stroke="#263238" stroke-miterlimit="10"/>
<path d="M548.367 212.438L542.703 208.023" stroke="#263238" stroke-width="0.5" stroke-miterlimit="10"/>
<path d="M551.286 197.579L547.09 192.115" stroke="#263238" stroke-width="2" stroke-miterlimit="10"/>
<path d="M548.367 193.757C548.367 193.757 548.732 191.568 546.908 189.561C545.813 188.357 539.729 185.009 538.89 187.189C537.978 189.561 543.998 195.025 548.367 193.748V193.757Z" fill="#E4322B" stroke="#263238" stroke-miterlimit="10"/>
<path d="M548.368 193.757L542.703 189.342" stroke="#263238" stroke-width="0.5" stroke-miterlimit="10"/>
<path d="M551.195 293.875L555.382 288.411" stroke="#263238" stroke-width="2" stroke-miterlimit="10"/>
<path d="M554.105 290.044C554.105 290.044 553.74 287.855 555.564 285.848C556.659 284.644 562.743 281.297 563.582 283.477C564.494 285.848 558.474 291.312 554.105 290.035V290.044Z" fill="#E4322B" stroke="#263238" stroke-miterlimit="10"/>
<path d="M554.105 290.043L560.107 285.4" stroke="#263238" stroke-width="0.5" stroke-miterlimit="10"/>
<path d="M551.195 256.019L555.382 250.556" stroke="#263238" stroke-width="2" stroke-miterlimit="10"/>
<path d="M554.105 252.197C554.105 252.197 553.74 250.008 555.564 248.001C556.659 246.797 562.743 243.45 563.582 245.63C564.494 248.001 558.474 253.465 554.105 252.188V252.197Z" fill="#E4322B" stroke="#263238" stroke-miterlimit="10"/>
<path d="M554.105 252.198L560.107 247.546" stroke="#263238" stroke-width="0.5" stroke-miterlimit="10"/>
<path d="M551.195 237.338L555.382 231.874" stroke="#263238" stroke-width="2" stroke-miterlimit="10"/>
<path d="M554.105 233.507C554.105 233.507 553.74 231.318 555.564 229.311C556.659 228.107 562.743 224.759 563.582 226.939C564.494 229.311 558.474 234.775 554.105 233.498V233.507Z" fill="#E4322B" stroke="#263238" stroke-miterlimit="10"/>
<path d="M554.105 233.506L560.107 228.863" stroke="#263238" stroke-width="0.5" stroke-miterlimit="10"/>
<path d="M551.195 212.648L555.382 207.175" stroke="#263238" stroke-width="2" stroke-miterlimit="10"/>
<path d="M554.104 208.817C554.104 208.817 553.74 206.627 555.564 204.621C556.659 203.417 562.743 200.069 563.582 202.249C564.494 204.621 558.474 210.084 554.104 208.807V208.817Z" fill="#E4322B" stroke="#263238" stroke-miterlimit="10"/>
<path d="M554.104 208.816L560.106 204.173" stroke="#263238" stroke-width="0.5" stroke-miterlimit="10"/>
<path d="M551.195 193.237L555.382 187.764" stroke="#263238" stroke-width="2" stroke-miterlimit="10"/>
<path d="M554.105 189.405C554.105 189.405 553.74 187.216 555.564 185.209C556.659 184.005 562.743 180.658 563.582 182.838C564.494 185.209 558.474 190.673 554.105 189.396V189.405Z" fill="#E4322B" stroke="#263238" stroke-miterlimit="10"/>
<path d="M554.105 189.406L560.107 184.763" stroke="#263238" stroke-width="0.5" stroke-miterlimit="10"/>
<path d="M550.94 180.795C550.94 180.795 550.575 178.606 552.399 176.599C553.494 175.395 559.578 172.047 560.417 174.228C561.329 176.599 555.309 182.063 550.94 180.786V180.795Z" fill="#E4322B" stroke="#263238" stroke-miterlimit="10"/>
<path d="M550.939 180.795L556.941 176.152" stroke="#263238" stroke-width="0.5" stroke-miterlimit="10"/>
<path d="M551.232 181.05C551.232 181.05 549.015 181.187 547.218 179.162C546.133 177.949 543.451 171.546 545.704 170.934C548.158 170.278 552.965 176.836 551.241 181.05H551.232Z" fill="#E4322B" stroke="#263238" stroke-miterlimit="10"/>
<path d="M551.232 181.049L547.246 174.601" stroke="#263238" stroke-width="0.5" stroke-miterlimit="10"/>
<path d="M556.395 338.496H542.977L541.308 304.619H558.073L556.395 338.496Z" fill="#263238" stroke="#263238" stroke-miterlimit="10"/>
<path d="M477.228 164.539C477.228 164.539 482.637 165.032 485.584 168.47C488.53 171.909 489.515 181.013 489.023 184.944C488.712 187.407 489.643 189.468 491.65 190.937C494.386 192.943 497.022 195.634 497.579 199.237C498.098 202.594 497.104 208.614 493.948 210.512C490.263 212.728 485.347 217.152 487.8 218.867C490.263 220.591 492.47 220.345 492.47 220.345C492.47 220.345 492.717 225.507 485.337 225.507C477.958 225.507 476.243 220.098 477.958 213.704C479.682 207.31 483.86 199.94 479.928 196.492C475.997 193.044 474.273 186.659 476.736 182.481C479.199 178.303 480.175 169.446 477.967 167.239C475.751 165.023 477.228 164.539 477.228 164.539Z" fill="#263238" stroke="#263238" stroke-linecap="round" stroke-linejoin="round"/>
<path d="M402.177 263.043L409.063 322.707L416.461 322.196L418.249 276.552L422.837 276.041L451.652 277.829C451.652 277.829 455.218 277.063 456.24 277.063C457.261 277.063 458.538 274.263 452.418 271.709C446.297 269.155 403.973 261 402.952 261C401.93 261 402.186 263.043 402.186 263.043H402.177Z" fill="#263238" stroke="#263238" stroke-linecap="round" stroke-linejoin="round"/>
<path d="M442.202 254.633C442.202 254.633 415.722 245.867 389.935 251.577C387.819 252.043 383.304 305.887 383.304 305.887L390.191 307.93L400.899 265.351C400.899 265.351 445.777 278.358 454.954 277.081C464.13 275.804 442.202 254.642 442.202 254.642V254.633Z" fill="#263238" stroke="#263238" stroke-linecap="round" stroke-linejoin="round"/>
<path d="M449.599 164.622C449.599 164.622 447.556 169.977 447.556 172.531C447.556 175.085 447.811 176.863 447.811 176.863C447.811 176.863 444.245 180.685 445.513 181.962L446.79 183.239C446.79 183.239 448.578 193.182 450.101 193.693C451.633 194.203 458.009 192.926 458.009 192.926L458.101 206.983L470.752 196.237L469.73 188.083C469.73 188.083 472.786 183.75 476.362 178.651C479.928 173.552 477.894 165.388 475.851 161.567C473.808 157.745 458.256 149.836 447.802 162.844L449.59 164.631L449.599 164.622Z" fill="white" stroke="#263238" stroke-linecap="round" stroke-linejoin="round"/>
<path d="M458.01 192.926L461.567 191.996L458.274 198.591L458.01 192.926Z" fill="#263238" stroke="#263238" stroke-linecap="round" stroke-linejoin="round"/>
<path d="M475.86 161.567C473.817 157.745 458.265 149.836 447.812 162.844L449.599 164.631L462.351 178.651C462.351 178.651 463.656 174.492 466.429 176.863C468.216 178.396 467.45 181.707 466.684 181.962C465.918 182.218 464.13 184.763 464.13 184.763L469.74 188.074C469.74 188.074 472.795 183.741 476.371 178.642C479.938 173.543 477.903 165.379 475.86 161.557V161.567Z" fill="#263238" stroke="#263238" stroke-linecap="round" stroke-linejoin="round"/>
<path d="M450.001 178.541C450.378 178.541 450.685 177.839 450.685 176.972C450.685 176.106 450.378 175.403 450.001 175.403C449.623 175.403 449.316 176.106 449.316 176.972C449.316 177.839 449.623 178.541 450.001 178.541Z" fill="#263238"/>
<path d="M449.116 173.051C449.116 173.051 450.493 172.458 452.062 173.835" stroke="#263238" stroke-linecap="round" stroke-linejoin="round"/>
<path d="M448.724 184.826C448.724 184.826 450.885 185.219 452.454 184.042" stroke="#263238" stroke-linecap="round" stroke-linejoin="round"/>
<path d="M450.183 229.521L422.736 231.738L413.916 230.917C413.916 230.917 401.766 235.04 404.138 235.843C406.509 236.636 409.264 235.788 409.264 235.788C409.264 235.788 412.867 237.293 416.433 237.211C420 237.129 422.344 236.417 422.344 236.417L452.947 241.024L450.174 229.521H450.183Z" fill="#263238" stroke="#263238" stroke-linecap="round" stroke-linejoin="round"/>
<path d="M470.25 194.713C470.25 194.713 454.443 210.01 451.889 213.841C449.335 217.672 448.322 220.983 448.322 224.294C448.322 227.606 450.621 235.003 450.621 235.003L447.565 245.967L438.644 254.122L452.664 276.561C452.664 276.561 459.04 277.838 463.373 275.284C467.705 272.73 470.515 261.766 470.515 256.411C470.515 251.057 469.493 239.582 469.493 239.582C469.493 239.582 475.358 221.221 477.146 214.343C478.934 207.456 479.189 201.336 477.402 198.025C475.614 194.713 472.813 192.926 470.259 194.713H470.25Z" fill="#E4322B" stroke="#263238" stroke-linecap="round" stroke-linejoin="round"/>
<path d="M409.054 322.706L400.389 332.394C400.389 332.394 393.757 334.437 392.736 335.449C391.714 336.462 393.757 336.982 396.302 338.003C398.856 339.025 408.288 337.492 411.344 337.237C414.399 336.982 417.209 337.237 418.23 334.683C419.252 332.129 418.23 329.329 417.975 328.307C417.72 327.285 416.443 322.187 416.443 322.187L409.045 322.697L409.054 322.706Z" fill="white" stroke="#263238" stroke-linecap="round" stroke-linejoin="round"/>
<path d="M399.96 332.531C398.491 332.996 393.611 334.592 392.745 335.459C391.723 336.481 393.766 336.991 396.311 338.013C398.865 339.035 408.297 337.502 411.353 337.247C414.408 336.991 417.218 337.247 418.239 334.693C419.261 332.139 418.239 329.338 417.984 328.317C417.957 328.198 417.911 328.025 417.856 327.824C413.405 330.615 405.834 333.671 404.211 333.671C403.107 333.671 401.346 333.078 399.951 332.531H399.96Z" fill="#E4322B" stroke="#263238" stroke-linecap="round" stroke-linejoin="round"/>
<path d="M383.304 305.878C383.304 305.878 373.362 316.842 372.084 318.374C370.807 319.907 366.986 320.418 367.241 322.196C367.496 323.984 371.574 323.473 373.362 323.218C375.149 322.963 386.369 320.162 387.892 319.651C389.415 319.141 391.459 318.374 391.714 316.085C391.969 313.786 390.182 307.93 390.182 307.93L383.295 305.887L383.304 305.878Z" fill="white" stroke="#263238" stroke-linecap="round" stroke-linejoin="round"/>
<path d="M391.723 316.076C391.878 314.644 391.249 311.825 390.747 309.9C388.248 311.123 385.821 314.434 384.581 315.054C383.048 315.82 371.318 319.642 371.318 319.642L370.78 319.341C369.175 320.226 367.04 320.846 367.232 322.196C367.487 323.984 371.564 323.473 373.352 323.218C375.14 322.962 386.36 320.162 387.883 319.651C389.415 319.14 391.449 318.374 391.705 316.085L391.723 316.076Z" fill="#E4322B" stroke="#263238" stroke-linecap="round" stroke-linejoin="round"/>
<path d="M465.671 208.059L458.538 231.911L422.736 231.738L422.353 236.417C422.353 236.417 458.292 243.715 460.755 243.715C463.218 243.715 465.918 242.976 466.903 241.252C467.888 239.528 478.213 213.96 478.706 208.305C479.199 202.65 477.967 198.472 475.76 197.241C473.543 196.009 469.119 198.226 467.642 200.679" fill="#E4322B"/>
<path d="M465.671 208.059L458.538 231.911L422.736 231.738L422.353 236.417C422.353 236.417 458.292 243.715 460.755 243.715C463.218 243.715 465.918 242.976 466.903 241.252C467.888 239.528 478.213 213.96 478.706 208.305C479.199 202.65 477.967 198.472 475.76 197.241C473.543 196.009 469.119 198.226 467.642 200.679" stroke="#263238" stroke-linecap="round" stroke-linejoin="round"/>
<path d="M422.746 231.738C422.746 231.738 412.611 229.503 411.134 229.54C409.656 229.576 402.14 234.41 402.158 235.149C402.176 235.888 404.138 235.842 404.138 235.842L407.576 235.523L411.243 234.702C411.243 234.702 414.463 235.614 415.932 235.578C417.409 235.541 419.608 235.003 419.608 235.003L422.344 236.417L422.727 231.738H422.746Z" fill="white" stroke="#263238" stroke-linecap="round" stroke-linejoin="round"/>
<path d="M486.797 200.961L482.692 200.733C482.692 200.733 472.202 231.062 470.834 242.464C469.466 253.866 469.922 263.444 470.606 266.636C471.29 269.829 474.939 275.986 474.939 275.986L479.5 277.126C479.5 277.126 474.711 264.812 474.483 261.392C474.255 257.971 474.848 244.398 475.167 242.692C477.675 229.466 486.797 200.961 486.797 200.961Z" fill="white" stroke="#263238" stroke-linecap="round" stroke-linejoin="round"/>
<path d="M450.083 317.261C450.083 317.261 427.507 328.663 427.051 331.171C426.595 333.679 427.051 336.872 427.051 336.872L427.854 336.069L430.024 330.943L450.32 321.365L450.092 317.261H450.083Z" fill="white" stroke="#263238" stroke-linecap="round" stroke-linejoin="round"/>
<path d="M428.647 338.468C430.033 338.468 431.156 337.345 431.156 335.96C431.156 334.574 430.033 333.451 428.647 333.451C427.262 333.451 426.139 334.574 426.139 335.96C426.139 337.345 427.262 338.468 428.647 338.468Z" fill="#263238" stroke="#263238" stroke-linecap="round" stroke-linejoin="round"/>
<path d="M456.696 317.261C456.696 317.261 479.272 328.663 479.728 331.171C480.184 333.679 479.728 336.872 479.728 336.872L478.925 336.069L476.754 330.943L456.459 321.365L456.687 317.261H456.696Z" fill="white" stroke="#263238" stroke-linecap="round" stroke-linejoin="round"/>
<path d="M478.132 338.468C479.517 338.468 480.64 337.345 480.64 335.96C480.64 334.574 479.517 333.451 478.132 333.451C476.747 333.451 475.624 334.574 475.624 335.96C475.624 337.345 476.747 338.468 478.132 338.468Z" fill="#263238" stroke="#263238" stroke-linecap="round" stroke-linejoin="round"/>
<path d="M454.872 280.091H451.223V319.769H454.872V280.091Z" fill="white" stroke="#263238" stroke-linecap="round" stroke-linejoin="round"/>
<path d="M458.52 283.967H447.802V291.264H458.52V283.967Z" fill="#263238" stroke="#263238" stroke-linecap="round" stroke-linejoin="round"/>
<path d="M478.624 276.625C470.725 275.795 445.285 273.587 422.481 276.643C421.614 276.762 421.277 277.829 421.915 278.431C424.342 280.72 431.064 284.88 448.486 286.02C466.483 287.197 475.678 281.678 479.253 278.695C480.056 278.03 479.664 276.725 478.624 276.625Z" fill="white" stroke="#263238" stroke-linecap="round" stroke-linejoin="round"/>
<path d="M421.897 278.413C421.897 278.413 421.925 278.44 421.943 278.458C422.135 278.632 422.381 278.732 422.645 278.732H479.226C479.226 278.732 479.253 278.714 479.263 278.695C480.056 278.03 479.655 276.734 478.624 276.625C470.725 275.795 445.285 273.587 422.481 276.643C421.633 276.753 421.277 277.82 421.897 278.413Z" fill="#E4322B" stroke="#263238" stroke-linecap="round" stroke-linejoin="round"/>
<path d="M457.38 313.612H448.943V322.506H457.38V313.612Z" fill="#263238" stroke="#263238" stroke-linecap="round" stroke-linejoin="round"/>
<path d="M453.513 318.064H452.254V338.478H453.513V318.064Z" fill="white" stroke="#263238" stroke-linecap="round" stroke-linejoin="round"/>
<path d="M453.969 333.15H451.761V338.496H453.969V333.15Z" fill="#263238" stroke="#263238" stroke-linecap="round" stroke-linejoin="round"/>
<path d="M461.713 278.723H456.696L453.503 248.166H456.924L461.713 278.723Z" fill="white" stroke="#263238" stroke-linecap="round" stroke-linejoin="round"/>
<path d="M470.378 250.218H435.945C435.945 250.218 438.453 245.657 440.049 245.201C441.646 244.745 467.642 245.201 467.642 245.201C467.642 245.201 470.378 246.113 470.378 250.218Z" fill="#E4322B" stroke="#263238" stroke-linecap="round" stroke-linejoin="round"/>
<path d="M435.945 250.217H470.378C470.378 249.807 470.342 249.433 470.296 249.077H436.62C436.209 249.734 435.945 250.217 435.945 250.217Z" fill="white" stroke="#263238" stroke-linecap="round" stroke-linejoin="round"/>
<path d="M308.343 199.364H261.787C258.649 199.364 256.132 201.955 256.214 205.093L257.874 263.744L256.05 276.697H314.154L311.417 263.744L313.908 205.175C314.044 202.009 311.509 199.364 308.343 199.364Z" fill="white" stroke="#263238" stroke-linecap="round" stroke-linejoin="round"/>
<path d="M306.218 202.895H263.922C261.067 202.895 258.777 205.357 258.859 208.331L260.373 264.009L258.713 276.305H311.509L309.019 264.009L311.281 208.413C311.399 205.403 309.101 202.895 306.218 202.895Z" fill="#E4322B" stroke="#263238" stroke-linecap="round" stroke-linejoin="round"/>
<path d="M255.795 248.794L252.83 275.702H255.338L258.303 248.794H255.795Z" fill="white" stroke="#263238" stroke-linecap="round" stroke-linejoin="round"/>
<path d="M314.172 248.794L317.137 275.702H314.628L311.664 248.794H314.172Z" fill="white" stroke="#263238" stroke-linecap="round" stroke-linejoin="round"/>
<path d="M260.054 243.723H254.28C253.706 243.723 253.24 244.188 253.24 244.762V248.183C253.24 248.757 253.706 249.223 254.28 249.223H260.054C260.629 249.223 261.094 248.757 261.094 248.183V244.762C261.094 244.188 260.629 243.723 260.054 243.723Z" fill="white" stroke="#263238" stroke-linecap="round" stroke-linejoin="round"/>
<path d="M260.054 243.723H254.28C253.706 243.723 253.24 244.188 253.24 244.762V247.882H261.094V244.762C261.094 244.188 260.629 243.723 260.054 243.723Z" fill="#E4322B" stroke="#263238" stroke-linecap="round" stroke-linejoin="round"/>
<path d="M315.851 243.723H310.077C309.502 243.723 309.037 244.188 309.037 244.762V248.183C309.037 248.757 309.502 249.223 310.077 249.223H315.851C316.425 249.223 316.891 248.757 316.891 248.183V244.762C316.891 244.188 316.425 243.723 315.851 243.723Z" fill="white" stroke="#263238" stroke-linecap="round" stroke-linejoin="round"/>
<path d="M315.851 243.723H310.077C309.502 243.723 309.037 244.188 309.037 244.762V247.882H316.891V244.762C316.891 244.188 316.425 243.723 315.851 243.723Z" fill="#E4322B" stroke="#263238" stroke-linecap="round" stroke-linejoin="round"/>
<path d="M284.117 316.066C284.117 316.066 261.541 327.468 261.085 329.977C260.629 332.485 261.085 335.678 261.085 335.678L261.888 334.875L264.059 329.749L284.354 320.171L284.126 316.066H284.117Z" fill="white" stroke="#263238" stroke-linecap="round" stroke-linejoin="round"/>
<path d="M262.682 337.274C264.067 337.274 265.19 336.151 265.19 334.765C265.19 333.38 264.067 332.257 262.682 332.257C261.296 332.257 260.173 333.38 260.173 334.765C260.173 336.151 261.296 337.274 262.682 337.274Z" fill="#263238" stroke="#263238" stroke-linecap="round" stroke-linejoin="round"/>
<path d="M290.73 316.066C290.73 316.066 313.306 327.468 313.762 329.977C314.218 332.485 313.762 335.678 313.762 335.678L312.959 334.875L310.788 329.749L290.493 320.171L290.721 316.066H290.73Z" fill="white" stroke="#263238" stroke-linecap="round" stroke-linejoin="round"/>
<path d="M312.166 337.274C313.551 337.274 314.674 336.151 314.674 334.765C314.674 333.38 313.551 332.257 312.166 332.257C310.781 332.257 309.657 333.38 309.657 334.765C309.657 336.151 310.781 337.274 312.166 337.274Z" fill="#263238" stroke="#263238" stroke-linecap="round" stroke-linejoin="round"/>
<path d="M288.906 278.896H285.257V318.574H288.906V278.896Z" fill="white" stroke="#263238" stroke-linecap="round" stroke-linejoin="round"/>
<path d="M292.554 282.772H281.837V290.07H292.554V282.772Z" fill="#263238" stroke="#263238" stroke-linecap="round" stroke-linejoin="round"/>
<path d="M316.955 275.438C308.088 274.627 278.79 272.383 252.484 275.42C251.462 275.539 251.115 276.843 251.936 277.473C254.956 279.799 262.827 283.721 282.165 284.824C302.844 286.001 313.406 280.483 317.52 277.5C318.378 276.88 318.004 275.539 316.955 275.438Z" fill="white" stroke="#263238" stroke-linecap="round" stroke-linejoin="round"/>
<path d="M251.909 277.454C251.909 277.454 251.973 277.5 252 277.527H317.483C317.483 277.527 317.511 277.509 317.529 277.491C318.377 276.88 318.003 275.53 316.954 275.438C308.088 274.627 278.79 272.383 252.483 275.42C251.471 275.539 251.106 276.834 251.909 277.454Z" fill="#E4322B" stroke="#263238" stroke-linecap="round" stroke-linejoin="round"/>
<path d="M291.414 312.417H282.977V321.31H291.414V312.417Z" fill="#263238" stroke="#263238" stroke-linecap="round" stroke-linejoin="round"/>
<path d="M287.538 316.859H286.279V337.273H287.538V316.859Z" fill="white" stroke="#263238" stroke-linecap="round" stroke-linejoin="round"/>
<path d="M288.003 331.946H285.795V337.291H288.003V331.946Z" fill="#263238" stroke="#263238" stroke-linecap="round" stroke-linejoin="round"/>
<path d="M268.145 236.644L263 257.158C263 257.158 254.499 265.869 253.742 270.804C252.985 275.739 273.481 321.465 273.481 321.465L282.21 320.325L277.276 274.644L292.837 274.261L292.682 320.316L301.411 321.456L315.878 276.386C315.878 276.386 317.502 270.986 316.234 267.922C313.807 262.038 306.647 257.176 306.647 257.176L299.587 236.635H268.145V236.644Z" fill="#263238" stroke="#263238" stroke-linecap="round" stroke-linejoin="round"/>
<path d="M273.481 321.464C273.481 321.464 273.426 325.861 272.496 329.573C271.566 333.295 269.012 336.077 270.17 337.473C271.329 338.868 277.832 338.631 280.158 337.938C282.484 337.245 283.871 335.147 283.871 331.662C283.871 328.178 282.201 320.324 282.201 320.324L273.472 321.464H273.481Z" fill="white" stroke="#263238" stroke-linecap="round" stroke-linejoin="round"/>
<path d="M270.17 337.473C271.329 338.868 277.832 338.631 280.158 337.938C282.484 337.245 283.88 335.147 283.88 331.662C283.88 330.705 283.752 329.409 283.57 328.041C283.004 329.71 281.791 331.27 279.237 331.662C274.859 332.337 272.679 331.909 271.812 331.626C270.718 334.317 269.24 336.351 270.179 337.473H270.17Z" fill="#E4322B" stroke="#263238" stroke-linecap="round" stroke-linejoin="round"/>
<path d="M301.411 321.464C301.411 321.464 301.466 325.861 302.396 329.573C303.327 333.295 305.881 336.077 304.722 337.473C303.564 338.868 297.06 338.631 294.734 337.938C292.408 337.245 291.013 335.147 291.013 331.662C291.013 328.178 292.682 320.324 292.682 320.324L301.411 321.464Z" fill="white" stroke="#263238" stroke-linecap="round" stroke-linejoin="round"/>
<path d="M304.722 337.473C303.564 338.868 297.06 338.631 294.734 337.938C292.408 337.245 291.013 335.147 291.013 331.662C291.013 330.705 291.14 329.409 291.323 328.041C291.888 329.71 293.102 331.27 295.656 331.662C300.034 332.337 302.214 331.909 303.08 331.626C304.175 334.317 305.653 336.351 304.713 337.473H304.722Z" fill="#E4322B" stroke="#263238" stroke-linecap="round" stroke-linejoin="round"/>
<path d="M274.284 188.692C274.284 188.692 259.908 193.098 258.567 194.831C257.227 196.555 239.011 222.241 236.329 225.114C233.647 227.987 233.073 231.253 233.264 232.594C233.456 233.935 235.371 237.191 235.371 237.191H243.234L248.798 228.754L262.526 214.278L268.154 236.635H299.596L304.285 213.457C304.285 213.457 314.163 230.277 314.355 230.852C314.546 231.426 317.42 236.416 322.792 236.023C328.156 235.64 327.389 228.544 324.899 222.606C322.409 216.668 312.631 196.536 309.757 193.855C306.884 191.173 291.35 187.716 291.35 187.716L274.284 188.674V188.692Z" fill="#E4322B" stroke="#263238" stroke-linecap="round" stroke-linejoin="round"/>
<path d="M312.932 230.012C312.932 230.012 310.432 229.693 314.628 227.102C318.824 224.512 324.634 224.603 326.495 225.004C328.347 225.406 328.675 226.619 329.724 229.282C330.773 231.946 330.29 234.363 329.159 235.494C328.028 236.625 328.192 237.109 324.397 236.142C320.603 235.175 316.653 232.995 314.957 231.946C313.26 230.897 312.941 230.012 312.941 230.012H312.932Z" fill="white" stroke="#263238" stroke-linecap="round" stroke-linejoin="round"/>
<path d="M313.324 230.523C313.324 230.523 320.192 228.233 322.774 227.585C325.355 226.938 328.101 228.881 328.748 231.945C329.396 235.01 328.429 237.92 325.118 238.641C321.807 239.37 318.496 238.394 316.644 237.272C314.793 236.141 311.636 234.445 311.636 234.445L313.324 230.523Z" fill="white" stroke="#263238" stroke-linecap="round" stroke-linejoin="round"/>
<path d="M306.227 230.166C306.227 230.166 304.212 230.969 303.81 231.215C303.409 231.461 301.466 233.559 300.262 234.043C299.049 234.526 297.279 234.526 298.647 235.894C300.016 237.263 301.712 236.214 302.524 235.648C303.327 235.083 304.54 234.435 304.868 234.435C305.197 234.435 306.72 234.681 307.048 234.754C307.368 234.836 312.375 236.123 313.671 236.451C314.966 236.779 315.686 237.016 316.58 235.402C317.465 233.787 316.097 231.525 315.048 230.805C313.999 230.075 306.255 230.157 306.255 230.157L306.227 230.166Z" fill="white" stroke="#263238" stroke-linecap="round" stroke-linejoin="round"/>
<path d="M308.599 228.952C308.599 228.952 305.917 228.186 305.917 229.144C305.917 230.102 305.151 236.432 306.875 235.857C308.599 235.283 308.599 228.952 308.599 228.952Z" fill="white" stroke="#263238" stroke-linecap="round" stroke-linejoin="round"/>
<path d="M308.599 228.953C308.599 228.953 307.066 235.666 308.216 235.858C309.365 236.049 310.706 231.26 310.897 229.719C311.089 228.186 309.174 228.186 308.599 228.953Z" fill="white" stroke="#263238" stroke-linecap="round" stroke-linejoin="round"/>
<path d="M311.025 229.755C311.025 229.755 309.493 236.469 310.642 236.66C311.791 236.852 313.132 232.063 313.324 230.521C313.515 228.989 311.6 228.989 311.025 229.755Z" fill="white" stroke="#263238" stroke-linecap="round" stroke-linejoin="round"/>
<path d="M313.625 231.342C313.625 231.342 312.056 236.551 313.233 236.706C314.409 236.852 315.787 233.13 315.978 231.935C316.179 230.74 314.209 230.74 313.625 231.342Z" fill="white" stroke="#263238" stroke-linecap="round" stroke-linejoin="round"/>
<path d="M233.83 228.881C233.83 228.881 234.359 225.597 235.271 224.029C236.193 222.45 238.82 221.931 240.389 221.274C241.967 220.617 246.555 222.46 248.133 224.165C249.711 225.871 250.103 228.234 249.574 229.939C249.045 231.645 246.29 233.223 245.898 233.223C245.506 233.223 243.006 229.155 240.644 228.89C238.281 228.626 233.821 228.89 233.821 228.89L233.83 228.881Z" fill="white" stroke="#263238" stroke-linecap="round" stroke-linejoin="round"/>
<path d="M233.83 228.881C233.83 228.881 235.144 224.284 240.653 224.284C246.162 224.284 247.084 229.666 247.084 230.852C247.084 232.037 245.506 236.762 244.329 237.155C243.143 237.547 236.503 237.903 235.363 237.2C234.222 236.498 232.644 231.381 233.83 228.881Z" fill="white" stroke="#263238" stroke-linecap="round" stroke-linejoin="round"/>
<path d="M246.692 234.655C246.692 234.655 247.877 235.704 250.632 236.233C253.387 236.762 255.092 237.419 253.259 238.067C251.426 238.723 249.583 238.459 248.662 238.331C247.74 238.204 246.427 237.674 246.427 237.674L246.692 234.655Z" fill="white" stroke="#263238" stroke-linecap="round" stroke-linejoin="round"/>
<path d="M242.623 231.243C242.623 231.243 245.642 232.684 246.691 234.655C247.74 236.625 247.74 238.595 247.74 238.595H242.231L242.623 231.243Z" fill="white" stroke="#263238" stroke-linecap="round" stroke-linejoin="round"/>
<path d="M241.574 229.93C241.574 229.93 239.869 229.401 239.34 230.323C238.81 231.244 231.988 234.263 231.86 235.577C231.732 236.89 231.732 238.724 233.046 238.988C234.359 239.253 243.28 239.116 243.681 238.86C244.074 238.596 242.632 231.773 242.632 231.244C242.632 230.715 242.368 229.93 241.583 229.93H241.574Z" fill="white" stroke="#263238" stroke-linecap="round" stroke-linejoin="round"/>
<path d="M239.34 230.979L240.526 238.596" stroke="#263238" stroke-linecap="round" stroke-linejoin="round"/>
<path d="M235.928 232.686L237.379 238.852" stroke="#263238" stroke-linecap="round" stroke-linejoin="round"/>
<path d="M233.566 233.998L234.752 238.331" stroke="#263238" stroke-linecap="round" stroke-linejoin="round"/>
<path d="M268.583 161.263C268.583 161.263 264.36 176.168 264.643 180.674C264.926 185.171 277.577 190.799 285.458 191.921C293.33 193.043 304.303 183.766 305.151 180.674C306 177.582 305.717 168.579 302.898 162.394C300.089 156.21 294.461 145.52 287.711 145.237C280.961 144.954 271.393 148.329 268.583 161.272V161.263Z" fill="#263238" stroke="#263238" stroke-linecap="round" stroke-linejoin="round"/>
<path d="M281.381 184.86C281.381 184.86 275.625 185.627 275.625 186.393C275.625 187.159 273.326 188.883 273.326 188.883L275.242 203.642L286.553 197.12L296.331 204.025L296.714 189.649L290.958 184.86H281.372H281.381Z" fill="white" stroke="#263238" stroke-linecap="round" stroke-linejoin="round"/>
<path d="M277.924 181.029L277.349 190.999L285.595 203.076L292.883 190.999L292.117 181.412L277.924 181.029Z" fill="white" stroke="#263238" stroke-linecap="round" stroke-linejoin="round"/>
<path d="M274.476 170.102C274.476 170.102 280.615 165.122 284.062 163.197C287.51 161.282 289.234 155.909 289.234 155.909C289.234 155.909 289.809 161.273 291.725 163.389C293.64 165.496 294.981 168.561 294.981 168.561L295.747 170.285C295.747 170.285 295.939 180.063 295.556 180.638C295.173 181.212 290.384 186.968 288.268 187.351C286.16 187.734 283.67 187.543 282.512 186.585C281.353 185.627 276.181 181.605 275.798 180.255C275.415 178.914 274.458 170.093 274.458 170.093L274.476 170.102Z" fill="white" stroke="#263238" stroke-linecap="round" stroke-linejoin="round"/>
<path d="M281.372 171.935C281.372 172.637 281.043 173.203 280.633 173.203C280.222 173.203 279.894 172.637 279.894 171.935C279.894 171.233 280.222 170.667 280.633 170.667C281.043 170.667 281.372 171.233 281.372 171.935Z" fill="#263238"/>
<path d="M289.809 173.203C290.217 173.203 290.548 172.635 290.548 171.935C290.548 171.235 290.217 170.667 289.809 170.667C289.401 170.667 289.07 171.235 289.07 171.935C289.07 172.635 289.401 173.203 289.809 173.203Z" fill="#263238"/>
<path d="M283.698 178.694C283.698 178.694 286.233 179.962 287.921 178.694" stroke="#263238" stroke-linecap="round" stroke-linejoin="round"/>
<path d="M282.849 181.222C282.849 181.222 286.434 182.489 288.76 181.012" stroke="#263238" stroke-linecap="round" stroke-linejoin="round"/>
<path d="M277.997 169.828C277.997 169.828 279.055 167.931 281.791 168.351" stroke="#263238" stroke-linecap="round" stroke-linejoin="round"/>
<path d="M288.76 168.56C288.76 168.56 290.238 167.502 292.135 169.619" stroke="#263238" stroke-linecap="round" stroke-linejoin="round"/>
<path d="M166.632 271.053L173.701 324.414L164.123 325.326L155.914 295.453L166.632 271.053Z" fill="#263238" stroke="#263238" stroke-linecap="round" stroke-linejoin="round"/>
<path d="M123.532 251.669C123.532 251.669 163.667 256.914 168.912 260.106C174.157 263.299 169.824 268.772 169.824 269.684C169.824 270.596 155.23 325.553 155.23 325.553L144.512 323.273L149.301 273.333L138.811 274.245C138.811 274.245 100.273 274.017 94.5716 272.192C88.8706 270.368 88.1865 260.562 89.3267 256.914C90.4669 253.265 90.2389 252.353 90.2389 252.353L123.532 251.669Z" fill="#263238" stroke="#263238" stroke-linecap="round" stroke-linejoin="round"/>
<path d="M117.85 227.132L149.036 230.936L158.796 228.044C158.796 228.044 168.246 232.112 166.869 233.38C165.482 234.648 160.63 231.775 160.63 231.775C160.63 231.775 155.157 237.384 153.004 236.363C150.842 235.332 148.526 235.232 148.526 235.232L120.851 237.093L117.868 227.132H117.85Z" fill="#263238" stroke="#263238" stroke-linecap="round" stroke-linejoin="round"/>
<path d="M97.3082 185.31C97.3082 185.31 89.0989 193.292 87.5026 200.133C85.9063 206.974 86.1344 213.815 86.3624 214.727C86.5905 215.639 89.555 250.301 90.2391 252.354C90.9232 254.406 100.501 255.546 106.202 255.546C111.903 255.546 121.708 253.722 123.533 251.669C125.357 249.617 124.445 241.864 122.849 238.215C121.252 234.567 114.639 201.273 114.183 197.396C113.727 193.52 113.499 192.836 110.762 189.871C108.026 186.907 102.097 183.942 97.3082 185.31Z" fill="#E4322B" stroke="#263238" stroke-linecap="round" stroke-linejoin="round"/>
<path d="M119.2 151.104C119.2 151.104 123.304 155.437 123.304 157.717C123.304 159.997 122.392 162.734 122.62 163.418C122.848 164.102 126.041 167.523 126.041 168.663C126.041 169.803 123.989 171.399 123.989 171.399C123.989 171.399 122.848 178.012 121.936 179.609C121.024 181.205 113.727 181.661 113.727 181.661L109.622 189.414L98.6764 183.485L100.045 174.364C100.045 174.364 93.4315 162.734 92.2913 156.805C91.1511 150.876 97.9922 145.403 99.5885 145.403C101.185 145.403 102.553 144.719 102.553 144.719C102.553 144.719 101.413 143.123 102.781 142.895C104.149 142.666 108.254 143.807 108.254 143.807C108.254 143.807 104.605 140.158 111.446 141.07C118.288 141.982 125.357 148.824 119.2 151.104Z" fill="white" stroke="#263238" stroke-linecap="round" stroke-linejoin="round"/>
<path d="M117.996 181.242C117.996 181.242 116.928 180.886 114.976 180.712C113.024 180.539 110.178 179.116 110.178 179.116L112.313 183.558L113.727 181.67L117.996 181.251V181.242Z" fill="#263238" stroke="#263238" stroke-linecap="round" stroke-linejoin="round"/>
<path d="M119.2 151.104C125.357 148.824 118.288 141.982 111.446 141.07C104.605 140.158 108.254 143.807 108.254 143.807C108.254 143.807 104.149 142.666 102.781 142.895C101.413 143.123 102.553 144.719 102.553 144.719C102.553 144.719 101.185 145.403 99.5885 145.403C97.9922 145.403 91.1511 150.876 92.2913 156.805C93.3585 162.36 99.2328 172.932 99.9716 174.227C101.322 173.515 102.553 172.211 102.097 170.715C101.413 168.435 103.693 164.102 103.693 164.102C103.693 164.102 104.605 165.698 105.746 166.61C106.886 167.523 107.57 166.61 107.57 166.61L107.114 162.962C107.114 162.962 108.938 159.997 111.446 158.173C113.955 156.349 108.254 156.121 107.798 154.524C107.342 152.928 119.2 151.104 119.2 151.104Z" fill="#263238" stroke="#263238" stroke-linecap="round" stroke-linejoin="round"/>
<path d="M106.658 167.067C106.658 167.067 104.377 163.191 102.553 164.103C100.729 165.015 101.413 171.4 103.693 171.628C105.974 171.856 107.114 171.172 107.114 171.172" fill="white"/>
<path d="M106.658 167.067C106.658 167.067 104.377 163.191 102.553 164.103C100.729 165.015 101.413 171.4 103.693 171.628C105.974 171.856 107.114 171.172 107.114 171.172" stroke="#263238" stroke-linecap="round" stroke-linejoin="round"/>
<path d="M119.774 164.786C120.218 164.786 120.577 164.125 120.577 163.309C120.577 162.493 120.218 161.831 119.774 161.831C119.331 161.831 118.972 162.493 118.972 163.309C118.972 164.125 119.331 164.786 119.774 164.786Z" fill="#263238"/>
<path d="M117.604 161.138C117.604 161.138 119.2 159.086 121.252 160.226" stroke="#263238" stroke-linecap="round" stroke-linejoin="round"/>
<path d="M118.516 171.855C118.516 171.855 119.884 173.224 121.936 173.224" stroke="#263238" stroke-linecap="round" stroke-linejoin="round"/>
<path d="M97.308 180.521L95.0276 185.082L111.902 192.836L113.043 186.907L97.308 180.521Z" fill="#E4322B" stroke="#263238" stroke-linecap="round" stroke-linejoin="round"/>
<path d="M155.23 325.553L158.878 333.078C158.878 333.078 167.544 336.271 167.316 337.639C167.088 339.007 156.598 338.323 156.598 338.323C156.598 338.323 141.776 335.587 141.548 333.534C141.32 331.482 144.512 323.272 144.512 323.272L155.23 325.553Z" fill="white" stroke="#263238" stroke-linecap="round" stroke-linejoin="round"/>
<path d="M173.701 324.413C173.701 324.413 180.998 327.834 181.682 328.29C182.366 328.746 190.348 330.798 191.032 331.026C191.716 331.254 191.944 332.85 191.944 332.85C191.944 332.85 178.946 335.587 178.034 335.587C177.121 335.587 170.736 334.903 169.14 334.903H163.439L164.123 325.325L173.701 324.413Z" fill="white" stroke="#263238" stroke-linecap="round" stroke-linejoin="round"/>
<path d="M94.5715 206.288C94.5715 206.288 101.413 243.23 103.693 244.371C105.973 245.511 149.483 237.283 149.483 237.283L149.118 232.047L113.499 230.46C113.499 230.46 110.534 197.167 107.114 193.062C103.693 188.957 96.6239 189.413 95.2556 192.378" fill="#E4322B"/>
<path d="M94.5715 206.288C94.5715 206.288 101.413 243.23 103.693 244.371C105.973 245.511 149.483 237.283 149.483 237.283L149.118 232.047L113.499 230.46C113.499 230.46 110.534 197.167 107.114 193.062C103.693 188.957 96.6239 189.413 95.2556 192.378" stroke="#263238" stroke-linecap="round" stroke-linejoin="round"/>
<path d="M149.118 232.047C149.118 232.047 159.809 229.384 161.287 229.447C162.764 229.511 170.171 234.519 170.134 235.249C170.098 235.988 168.137 235.896 168.137 235.896L164.707 235.495L161.058 234.592C161.058 234.592 158.14 237.064 156.671 237C155.193 236.936 153.004 236.343 153.004 236.343L149.483 237.265L149.118 232.029V232.047Z" fill="white" stroke="#263238" stroke-linecap="round" stroke-linejoin="round"/>
<path d="M72.6799 198.307L76.7846 198.079C76.7846 198.079 87.2744 228.408 88.6426 239.81C90.0108 251.212 89.5547 260.79 88.8706 263.982C88.1865 267.175 84.5379 273.332 84.5379 273.332L80.2052 274.7C80.2052 274.7 84.7659 262.158 84.994 258.737C85.222 255.317 84.6291 241.744 84.3099 240.038C81.8015 226.812 72.6799 198.307 72.6799 198.307Z" fill="white" stroke="#263238" stroke-linecap="round" stroke-linejoin="round"/>
<path d="M109.394 314.606C109.394 314.606 131.97 326.008 132.426 328.517C132.882 331.025 132.426 334.218 132.426 334.218L131.623 333.415L129.452 328.289L109.157 318.711L109.385 314.606H109.394Z" fill="white" stroke="#263238" stroke-linecap="round" stroke-linejoin="round"/>
<path d="M130.83 335.814C132.215 335.814 133.338 334.691 133.338 333.305C133.338 331.92 132.215 330.797 130.83 330.797C129.444 330.797 128.321 331.92 128.321 333.305C128.321 334.691 129.444 335.814 130.83 335.814Z" fill="#263238" stroke="#263238" stroke-linecap="round" stroke-linejoin="round"/>
<path d="M102.781 314.606C102.781 314.606 80.2052 326.008 79.7491 328.517C79.293 331.025 79.7491 334.218 79.7491 334.218L80.5518 333.415L82.7227 328.289L103.018 318.711L102.79 314.606H102.781Z" fill="white" stroke="#263238" stroke-linecap="round" stroke-linejoin="round"/>
<path d="M81.3456 335.814C82.7309 335.814 83.854 334.691 83.854 333.305C83.854 331.92 82.7309 330.797 81.3456 330.797C79.9602 330.797 78.8372 331.92 78.8372 333.305C78.8372 334.691 79.9602 335.814 81.3456 335.814Z" fill="#263238" stroke="#263238" stroke-linecap="round" stroke-linejoin="round"/>
<path d="M104.605 317.115H108.254V277.437H104.605V317.115Z" fill="white" stroke="#263238" stroke-linecap="round" stroke-linejoin="round"/>
<path d="M100.957 288.61H111.674V281.313H100.957V288.61Z" fill="#263238" stroke="#263238" stroke-linecap="round" stroke-linejoin="round"/>
<path d="M80.7069 273.98C88.4601 273.159 114.21 270.897 137.206 274.016C137.963 274.117 138.282 275.056 137.735 275.594C135.472 277.838 128.859 282.189 110.981 283.357C92.802 284.543 83.6075 278.896 80.1048 275.941C79.3477 275.303 79.7217 274.08 80.6977 273.971L80.7069 273.98Z" fill="white" stroke="#263238" stroke-linecap="round" stroke-linejoin="round"/>
<path d="M137.269 276.042L137.233 276.079H80.2509C80.1961 276.033 80.1505 275.997 80.0958 275.951C79.3478 275.312 79.7309 274.09 80.7069 273.99C88.3964 273.178 113.772 270.943 136.622 273.944C137.643 274.081 138.045 275.367 137.269 276.042Z" fill="#E4322B" stroke="#263238" stroke-linecap="round" stroke-linejoin="round"/>
<path d="M102.097 319.86H110.534V310.967H102.097V319.86Z" fill="#263238" stroke="#263238" stroke-linecap="round" stroke-linejoin="round"/>
<path d="M105.973 335.814H107.232V315.4H105.973V335.814Z" fill="white" stroke="#263238" stroke-linecap="round" stroke-linejoin="round"/>
<path d="M105.499 335.832H107.707V330.487H105.499V335.832Z" fill="#263238" stroke="#263238" stroke-linecap="round" stroke-linejoin="round"/>
<path d="M97.7642 276.069H102.781L105.974 245.512H102.553L97.7642 276.069Z" fill="white" stroke="#263238" stroke-linecap="round" stroke-linejoin="round"/>
<path d="M89.0986 247.563H123.532C123.532 247.563 121.024 243.003 119.428 242.546C117.831 242.09 91.8351 242.546 91.8351 242.546C91.8351 242.546 89.0986 243.459 89.0986 247.563Z" fill="#E4322B" stroke="#263238" stroke-linecap="round" stroke-linejoin="round"/>
<path d="M123.532 247.563H89.0986C89.0986 247.153 89.1351 246.779 89.1807 246.423H122.857C123.268 247.08 123.532 247.563 123.532 247.563Z" fill="white" stroke="#263238" stroke-linecap="round" stroke-linejoin="round"/>
<path d="M262.034 239.153H313.333V237.356H262.034V239.153Z" fill="white" stroke="#263238" stroke-linecap="round" stroke-linejoin="round"/>
<path d="M312.74 180.146H258.577C256.687 180.146 255.156 181.678 255.156 183.567V229.503C255.156 231.392 256.687 232.924 258.577 232.924H312.74C314.629 232.924 316.161 231.392 316.161 229.503V183.567C316.161 181.678 314.629 180.146 312.74 180.146Z" fill="white" stroke="#263238" stroke-linecap="round" stroke-linejoin="round"/>
<path d="M290.575 208.971H280.733V239.117H290.575V208.971Z" fill="#263238" stroke="#263238" stroke-linecap="round" stroke-linejoin="round"/>
<path d="M426.266 237.402H397.588V239.108H426.266V237.402Z" fill="white" stroke="#263238" stroke-linecap="round" stroke-linejoin="round"/>
<path d="M380.303 238.725H367.798C365.59 238.725 363.775 237.001 363.657 234.803C363.629 234.338 363.684 233.873 363.812 233.435L371.647 210.896C371.811 210.421 372.331 210.166 372.805 210.33C373.28 210.494 373.535 211.014 373.371 211.489L365.545 233.982C365.49 234.183 365.453 234.447 365.472 234.703C365.536 235.934 366.557 236.901 367.789 236.901H380.294C380.796 236.901 381.206 237.312 381.206 237.813C381.206 238.315 380.796 238.725 380.294 238.725H380.303Z" fill="#263238" stroke="#263238" stroke-linecap="round" stroke-linejoin="round"/>
<path d="M377.074 180.056L390.884 232.942L389.37 234.073C389.37 234.073 371.985 220.473 371.985 209.135C371.985 197.797 375.004 180.411 375.004 180.411L377.065 180.056H377.074Z" fill="white" stroke="#263238" stroke-linecap="round" stroke-linejoin="round"/>
<path d="M377.074 180.056L375.022 180.411L389.379 234.073L390.893 232.933L377.074 180.056Z" fill="#263238" stroke="#263238" stroke-linecap="round" stroke-linejoin="round"/>
<path d="M152.028 239.108H180.706V237.403H152.028V239.108Z" fill="white" stroke="#263238" stroke-linecap="round" stroke-linejoin="round"/>
<path d="M197.991 238.725H210.497C212.704 238.725 214.52 237.001 214.638 234.803C214.666 234.338 214.611 233.873 214.483 233.435L206.648 210.896C206.484 210.421 205.964 210.166 205.489 210.33C205.015 210.494 204.76 211.014 204.924 211.489L212.75 233.982C212.805 234.183 212.841 234.447 212.823 234.703C212.759 235.934 211.738 236.901 210.506 236.901H198.001C197.499 236.901 197.088 237.312 197.088 237.813C197.088 238.315 197.499 238.725 198.001 238.725H197.991Z" fill="#263238" stroke="#263238" stroke-linecap="round" stroke-linejoin="round"/>
<path d="M201.221 180.056L187.411 232.942L188.925 234.073C188.925 234.073 206.31 220.473 206.31 209.135C206.31 197.797 203.291 180.411 203.291 180.411L201.23 180.056H201.221Z" fill="white" stroke="#263238" stroke-linecap="round" stroke-linejoin="round"/>
<path d="M201.221 180.056L203.282 180.411L188.916 234.073L187.411 232.933L201.221 180.056Z" fill="#263238" stroke="#263238" stroke-linecap="round" stroke-linejoin="round"/>
<path d="M148.589 244.071L152.475 254.077C153.852 256.914 154.391 261.739 154.026 264.877L144.913 337.129C144.804 337.959 145.461 338.698 146.291 338.698C146.957 338.698 147.531 338.223 147.659 337.567L165.063 245.047H158.687L157.565 250.365C157.373 251.268 156.105 251.332 155.832 250.456L153.679 243.679L148.589 244.08V244.071Z" fill="white" stroke="#263238" stroke-linecap="round" stroke-linejoin="round"/>
<path d="M427.27 244.071L423.384 254.077C422.007 256.914 421.469 261.739 421.833 264.877L430.946 337.129C431.055 337.959 430.399 338.698 429.568 338.698C428.903 338.698 428.328 338.223 428.2 337.567L410.796 245.047H417.172L418.294 250.365C418.486 251.268 419.754 251.332 420.027 250.456L422.18 243.679L427.27 244.08V244.071Z" fill="white" stroke="#263238" stroke-linecap="round" stroke-linejoin="round"/>
<path d="M286.507 338.77C285.275 338.77 284.263 337.785 284.235 336.545L282.457 242.319H290.557L288.778 336.545C288.751 337.776 287.747 338.77 286.507 338.77Z" fill="white" stroke="#263238" stroke-linecap="round" stroke-linejoin="round"/>
<path d="M434.576 239.072H141.775V245.001H434.576V239.072Z" fill="white" stroke="#263238" stroke-linecap="round" stroke-linejoin="round"/>
</svg>
