<svg width="87" height="87" viewBox="0 0 87 87" fill="none" xmlns="http://www.w3.org/2000/svg">
<rect width="87" height="87" rx="4" fill="#FFECEC"/>
<path d="M67.3211 51.7632C67.1598 51.441 66.8305 51.2372 66.4699 51.2372H59.974V29.8467H58.0707V52.1888C58.0707 52.7142 58.4967 53.1405 59.0224 53.1405H64.5667L51.5748 70.463L38.5832 53.1405H44.1272C44.6529 53.1405 45.0788 52.7142 45.0788 52.1888V45.9829H43.1756V51.2372H36.68C36.3194 51.2372 35.9901 51.441 35.8287 51.7632C35.6676 52.0854 35.7023 52.4713 35.9185 52.76L50.8133 72.6202C50.9933 72.8593 51.2752 73.0007 51.5748 73.0007C51.8744 73.0007 52.1563 72.8593 52.3363 72.6202L67.2314 52.76C67.4476 52.4713 67.4823 52.0854 67.3211 51.7632Z" fill="#E4322B"/>
<path d="M59.974 22.3994H58.0708V24.882H59.974V22.3994Z" fill="#E4322B"/>
<path d="M59.974 14.9521H58.0708V17.4347H59.974V14.9521Z" fill="#E4322B"/>
<path d="M38.8725 43.5008V31.0882C38.8725 28.4229 34.7281 26.4131 29.2321 26.4131C23.7361 26.4131 19.5916 28.4229 19.5916 31.0882V43.5008C19.5916 46.1661 23.7361 48.1765 29.2321 48.1765C34.7281 48.1765 38.8725 46.1661 38.8725 43.5008ZM36.9693 43.5008C36.9693 44.6315 33.9552 46.2733 29.2321 46.2733C24.5089 46.2733 21.4948 44.6315 21.4948 43.5008V40.1528C23.2233 41.2717 25.9929 41.9699 29.2321 41.9699C32.4713 41.9699 35.2409 41.2717 36.9693 40.1528V43.5008ZM36.9693 37.2948C36.9693 38.4248 33.9552 40.0666 29.2321 40.0666C24.5089 40.0666 21.4948 38.4248 21.4948 37.2948V33.9462C23.2233 35.0655 25.9929 35.7639 29.2321 35.7639C32.4713 35.7639 35.2409 35.0655 36.9693 33.9462V37.2948ZM29.2321 33.8607C24.5089 33.8607 21.4948 32.2188 21.4948 31.0882C21.4948 29.9581 24.5089 28.3164 29.2321 28.3164C33.9552 28.3164 36.9693 29.9581 36.9693 31.0882C36.9693 32.2188 33.9552 33.8607 29.2321 33.8607Z" fill="#E4322B"/>
<path d="M32.666 21.5337C34.3944 22.6525 37.164 23.3508 40.4032 23.3508C43.6423 23.3508 46.4119 22.6525 48.1403 21.5337V24.8817C48.1403 25.9232 45.4782 27.4758 41.1426 27.64L41.2145 29.542C44.1441 29.4309 46.5758 28.7738 48.1403 27.7655V31.0877C48.1403 32.0418 45.8068 33.5653 41.5871 33.8243L41.7036 35.7238C44.4062 35.558 46.6598 34.906 48.1403 33.9484V37.2943C48.1403 38.2491 45.8059 39.7725 41.5846 40.0308L41.7011 41.9304C46.6128 41.6299 50.0436 39.7236 50.0436 37.2943V18.6757C50.0436 16.0104 45.8991 14 40.4032 14C34.9072 14 30.7627 16.0104 30.7627 18.6757V23.6408H32.666V21.5337ZM40.4032 15.9032C45.1263 15.9032 48.1403 17.545 48.1403 18.6757C48.1403 19.8058 45.1263 21.4476 40.4032 21.4476C35.68 21.4476 32.666 19.8058 32.666 18.6757C32.666 17.545 35.68 15.9032 40.4032 15.9032Z" fill="#E4322B"/>
</svg>
