<svg width="87" height="87" viewBox="0 0 87 87" fill="none" xmlns="http://www.w3.org/2000/svg">
<rect width="87" height="87" rx="4" fill="#FFECEC"/>
<path d="M63.7652 52.6025C60.698 52.6025 58.2068 55.0937 58.2068 58.1609C58.2068 61.2281 60.698 63.7193 63.7652 63.7193C66.8324 63.7193 69.3235 61.2281 69.3235 58.1609C69.3235 55.0937 66.8252 52.6025 63.7652 52.6025ZM63.7652 61.7465C61.7852 61.7465 60.1796 60.1409 60.1796 58.1609C60.1796 56.1809 61.7924 54.5753 63.7652 54.5753C65.7452 54.5753 67.3508 56.1809 67.3508 58.1609C67.3508 60.1337 65.7452 61.7465 63.7652 61.7465Z" fill="#E4322B"/>
<path d="M77.3659 54.3235H74.7811C74.6299 53.8987 74.4571 53.4811 74.2627 53.0779L76.0915 51.2491C76.4011 50.9395 76.5667 50.5363 76.5667 50.0971C76.5667 49.6651 76.4011 49.2547 76.0915 48.9451L72.9667 45.8203C72.6571 45.5107 72.2539 45.3451 71.8147 45.3451C71.3827 45.3451 70.9723 45.5107 70.6627 45.8203L68.834 47.6491C68.4308 47.4547 68.0132 47.2819 67.5884 47.1307V44.5459C67.5884 44.0707 67.3868 43.6459 67.0628 43.3507V15.9549C67.0628 14.6661 66.0188 13.6221 64.73 13.6221H42.1797C41.5821 13.6221 41.0205 13.8453 40.5813 14.2557L33.8493 20.606H32.3589C31.7613 20.606 31.1925 20.8292 30.7533 21.2396L19.2334 32.09C18.9022 32.3996 18.6718 32.81 18.5638 33.2492C18.5638 33.2564 18.5566 33.2636 18.5566 33.2708C18.5206 33.4364 18.499 33.6092 18.499 33.7892V38.534L14.4094 32.6228C13.891 31.8812 12.8686 31.694 12.127 32.2052L7.70621 35.2652C6.96461 35.7764 6.77741 36.7988 7.28861 37.5476L9.4846 40.7372C9.5134 40.7948 9.5422 40.8596 9.5782 40.91C9.607 40.9532 9.643 40.9892 9.679 41.0252L18.499 53.8411V64.6051C18.499 65.8938 19.543 66.9379 20.8318 66.9379H51.1292C51.2084 67.0891 51.3092 67.2402 51.4316 67.3626L54.5564 70.4874C55.19 71.121 56.2196 71.121 56.8532 70.4874L58.682 68.6586C59.0852 68.853 59.5028 69.0258 59.9276 69.177V71.7618C59.9276 72.6546 60.6548 73.389 61.5548 73.389H65.9756C66.8684 73.389 67.6028 72.6618 67.6028 71.7618V69.177C68.0276 69.0258 68.4452 68.853 68.8484 68.6586L70.6771 70.4874C71.3107 71.121 72.3403 71.121 72.9739 70.4874L76.0987 67.3626C76.7323 66.729 76.7323 65.6995 76.0987 65.0659L74.2699 63.2371C74.4643 62.8339 74.6371 62.4163 74.7883 61.9915H77.3731C78.2659 61.9915 79.0003 61.2643 79.0003 60.3643V55.9435C78.9931 55.0507 78.2659 54.3235 77.3659 54.3235ZM41.9277 15.6813C41.9925 15.6165 42.0861 15.5877 42.1725 15.5877H64.7372C64.9388 15.5877 65.1044 15.7533 65.1044 15.9549V42.9259H61.562C60.6692 42.9259 59.9348 43.6531 59.9348 44.5531V47.1379C59.51 47.2891 59.0924 47.4619 58.6892 47.6563L57.2564 46.2235V22.9244C57.2564 21.6428 56.2124 20.5988 54.9236 20.5988H36.7221L41.9277 15.6813ZM30.6237 24.062V32.126C30.6237 32.3276 30.4581 32.486 30.2565 32.486H21.6886L30.6237 24.062ZM20.4718 34.4516H30.2637C31.5525 34.4516 32.5965 33.4076 32.5965 32.1188V22.5644H54.9092C55.1108 22.5644 55.2764 22.7228 55.2764 22.9244V45.4099C55.01 45.4819 54.758 45.6259 54.5564 45.8275L51.4316 48.9523C51.122 49.2619 50.9564 49.6651 50.9564 50.1043C50.9564 50.5363 51.122 50.9467 51.4316 51.2563L53.2604 53.0851C53.066 53.4883 52.8932 53.9059 52.742 54.3307H50.1572C49.2644 54.3307 48.53 55.0579 48.53 55.9579V60.3787C48.53 61.2715 49.2572 62.0059 50.1572 62.0059H52.742C52.8932 62.4307 53.066 62.8483 53.2604 63.2515L51.5324 64.9795H44.8437V45.9355C44.8437 44.6467 43.7997 43.6027 42.5109 43.6027H22.0054L20.4718 41.3852V34.4516ZM26.5485 57.8011L22.5669 55.7275L23.6181 53.2363L25.9437 53.2651L26.5485 57.8011ZM11.767 40.586L12.9622 39.758L21.7822 52.5019L21.0982 54.1363L11.767 40.586ZM23.3157 51.2563L14.5894 38.642L15.6622 37.9004L18.6646 42.242L24.9141 51.2779L23.3157 51.2563ZM12.9766 34.0124L14.539 36.2732L13.0054 37.3316L12.2998 37.8212L10.651 38.966L9.0886 36.698L12.9766 34.0124ZM20.4718 64.6051V56.6995C20.5726 56.8651 20.731 57.0091 20.9254 57.0883H20.9326C20.9542 57.1027 20.9758 57.1171 20.9974 57.1243L26.2029 59.8387C26.4405 59.9611 26.6997 60.0259 26.9589 60.0259C27.2901 60.0259 27.6213 59.9251 27.9021 59.7307C28.4061 59.3779 28.6653 58.7803 28.5861 58.1683L27.7941 52.2859C27.7869 52.2571 27.7797 52.2211 27.7725 52.1923C27.7581 52.0267 27.7005 51.8683 27.6141 51.7387C27.5853 51.6811 27.5493 51.6235 27.5133 51.5731L23.3589 45.5755H42.5037C42.6981 45.5755 42.8709 45.7411 42.8709 45.9427V64.9723H20.8318C20.6302 64.9651 20.4718 64.8067 20.4718 64.6051ZM77.0203 60.0187H74.5291C73.8307 60.0187 73.2115 60.4723 72.9883 61.1491C72.8299 61.6315 72.6355 62.1067 72.4051 62.5603C72.0811 63.1939 72.1963 63.9499 72.6931 64.4467L74.4571 66.2107L71.8219 68.8458L70.0579 67.0818C69.5611 66.585 68.8052 66.4698 68.1716 66.7938C67.718 67.0242 67.2428 67.2258 66.7604 67.377C66.0836 67.593 65.63 68.2122 65.63 68.9178V71.4162H61.9004V68.9178C61.9004 68.2194 61.4468 67.6002 60.77 67.377C60.2876 67.2186 59.8124 67.0242 59.3588 66.7938C58.7252 66.4698 57.9692 66.585 57.4724 67.0818L55.7084 68.8458L53.0732 66.2179L54.8372 64.4539C55.334 63.9571 55.4492 63.2011 55.1252 62.5675C54.8948 62.1139 54.6932 61.6387 54.542 61.1563C54.326 60.4795 53.7068 60.0259 53.0012 60.0259H50.5028V56.2963H53.0012C53.6996 56.2963 54.3188 55.8427 54.542 55.1659C54.7004 54.6835 54.8948 54.2083 55.1252 53.7547C55.4492 53.1211 55.334 52.3651 54.8372 51.8683L53.0732 50.0971L55.7084 47.4619L57.4724 49.2259C57.9692 49.7227 58.7252 49.8379 59.3588 49.5139C59.8124 49.2835 60.2876 49.0819 60.77 48.9307C61.4468 48.7147 61.9004 48.0955 61.9004 47.3899V44.8915H65.63V47.3899C65.63 48.0883 66.0836 48.7075 66.7604 48.9307C67.2428 49.0891 67.718 49.2835 68.1716 49.5139C68.8052 49.8379 69.5611 49.7227 70.0579 49.2259L71.8219 47.4619L74.4571 50.0971L72.6931 51.8611C72.1963 52.3579 72.0811 53.1139 72.4051 53.7475C72.6355 54.2011 72.8371 54.6763 72.9883 55.1587C73.2043 55.8355 73.8235 56.2891 74.5291 56.2891H77.0275V60.0187H77.0203Z" fill="#E4322B"/>
</svg>
