<svg width="87" height="87" viewBox="0 0 87 87" fill="none" xmlns="http://www.w3.org/2000/svg">
<rect width="87" height="87" rx="4" fill="#FFECEC"/>
<path d="M49.8332 71H17.125C16.504 71 16 70.496 16 69.875V64.4705C16 64.3783 16.0112 64.286 16.0337 64.1982C16.621 61.8492 17.5413 59.552 20.284 58.6362L30.2695 55.3085C32.6162 54.3275 33.7143 50.444 33.9505 48.9702C32.2292 47.3885 30.625 45.0103 30.625 42.875C30.625 42.0785 30.3888 41.75 30.2628 41.6892C29.9118 41.6015 29.7137 41.3787 29.5787 41.0435C29.4572 40.7353 28.375 37.9745 28.375 36.125C28.375 36.0327 28.3862 35.9405 28.4087 35.8527C28.5325 35.3577 28.8767 34.6378 29.5 34.2148V28.25C29.5 23.552 33.7795 17 40.75 17C47.635 17 49.507 20.5303 49.7275 22.2762C50.893 23.1403 52 24.6253 52 28.25V34.2148C52.6232 34.6378 52.9675 35.3577 53.0913 35.8527C53.1138 35.9405 53.125 36.0327 53.125 36.125C53.125 37.9745 52.0428 40.7353 51.919 41.0435C51.784 41.3787 51.496 41.6308 51.1473 41.7185C51.1113 41.75 50.875 42.0785 50.875 42.875C50.875 45.0103 49.273 47.3885 47.5518 48.9657C47.7025 49.8815 48.193 51.8008 49.219 53.387C49.5565 53.9068 49.4058 54.6043 48.886 54.9418C48.364 55.2748 47.6688 55.133 47.3313 54.6087C45.8778 52.3678 45.25 49.4787 45.25 48.5C45.25 48.1647 45.3985 47.8475 45.6595 47.6315C47.1333 46.4143 48.625 44.3892 48.625 42.875C48.625 41.1943 49.3203 40.2627 49.9772 39.8217C50.3013 38.9397 50.8165 37.3378 50.8705 36.296C50.8322 36.2083 50.7783 36.116 50.7422 36.0845C50.1213 36.0823 49.75 35.621 49.75 35V28.25C49.75 24.938 48.6857 24.2652 48.2313 23.975C47.959 23.7995 47.5 23.5115 47.4325 22.8927C47.419 22.7578 47.437 22.607 47.482 22.454C47.3222 21.5608 45.9722 19.25 40.75 19.25C35.2555 19.25 31.75 24.5802 31.75 28.25V35C31.75 35.621 31.246 36.125 30.625 36.125C30.679 36.125 30.6587 36.2015 30.6295 36.287C30.6812 37.3355 31.1988 38.9398 31.5228 39.8195C32.1798 40.2605 32.875 41.1943 32.875 42.875C32.875 44.3892 34.3667 46.4143 35.8405 47.6315C36.1015 47.8475 36.25 48.1647 36.25 48.5C36.25 49.9287 34.9517 55.79 31.057 57.4145L20.995 60.7715C19.402 61.3025 18.7698 62.5827 18.25 64.61V68.75H49.8332C50.4543 68.75 50.9582 69.254 50.9582 69.875C50.9582 70.496 50.4543 71 49.8332 71Z" fill="#E4322B"/>
<path d="M59.875 71C54.2928 71 49.75 66.4572 49.75 60.875C49.75 55.2928 54.2928 50.75 59.875 50.75C65.2683 50.75 70 55.6595 70 58.625C70 59.246 69.496 59.75 68.875 59.75C68.254 59.75 67.75 59.246 67.75 58.625C67.75 57.0837 64.1725 53 59.875 53C55.5325 53 52 56.5325 52 60.875C52 65.2175 55.5325 68.75 59.875 68.75C60.496 68.75 61 69.254 61 69.875C61 70.496 60.496 71 59.875 71Z" fill="#E4322B"/>
<path d="M68.875 59.75H62.125C61.504 59.75 61 59.246 61 58.625C61 58.004 61.504 57.5 62.125 57.5H67.75V51.875C67.75 51.254 68.254 50.75 68.875 50.75C69.496 50.75 70 51.254 70 51.875V58.625C70 59.246 69.496 59.75 68.875 59.75Z" fill="#E4322B"/>
</svg>
